/* XPM */
static char *_97b34fe4b4647e2b4f6df8cbbde3031vaIqYE0TaEC3STAY[] = {
/* columns rows colors chars-per-pixel */
"64 64 142 2 ",
"   c #344050",
".  c #3A4455",
"X  c #3F4857",
"o  c #3F485A",
"O  c #434D5D",
"+  c #47505F",
"@  c #465262",
"#  c #4A5565",
"$  c #4C5866",
"%  c #4D5969",
"&  c #525D6D",
"*  c #565F70",
"=  c #57606F",
"-  c #566272",
";  c #5A6575",
":  c #5C6778",
">  c #5E6A7A",
",  c #626D7D",
"<  c #67707F",
"1  c #646F81",
"2  c #667182",
"3  c #6A7585",
"4  c #6F7887",
"5  c #6B7788",
"6  c #6E7A8B",
"7  c #717D8E",
"8  c #737F91",
"9  c #76818F",
"0  c #758293",
"q  c #798596",
"w  c #7E8997",
"e  c #778699",
"r  c #7B8798",
"t  c #7D8A9B",
"y  c #7E8DA0",
"u  c #818D9E",
"i  c #828FA0",
"p  c #8390A1",
"a  c #8390A0",
"s  c #8090A0",
"d  c #8591A1",
"f  c #8491A1",
"g  c #8590A2",
"h  c #8491A2",
"j  c #8691A3",
"k  c #8592A2",
"l  c #8592A3",
"z  c #8692A2",
"x  c #8793A3",
"c  c #8291A4",
"v  c #8392A5",
"b  c #8491A4",
"n  c #8592A5",
"m  c #8792A4",
"M  c #8693A4",
"N  c #8493A6",
"B  c #8494A4",
"V  c #8794A5",
"C  c #8794A7",
"Z  c #8696A6",
"A  c #8797A7",
"S  c #8592A3",
"D  c #8891A0",
"F  c #8992A1",
"G  c #8893A5",
"H  c #8894A4",
"J  c #8995A5",
"K  c #8994A6",
"L  c #8895A6",
"P  c #8A95A7",
"I  c #8996A6",
"U  c #8996A7",
"Y  c #8A96A6",
"T  c #8B97A7",
"R  c #8995A6",
"E  c #8E99A7",
"W  c #8796A9",
"Q  c #8695A8",
"!  c #8996A9",
"~  c #8B96A8",
"^  c #8A97A8",
"/  c #8C97A9",
"(  c #8A97A8",
")  c #8898A8",
"_  c #8999A9",
"`  c #8B98A8",
"'  c #8B98A9",
"]  c #8B9BAB",
"[  c #8C98A8",
"{  c #8C99A9",
"}  c #8D99A9",
"|  c #8D98AA",
" . c #8C99AA",
".. c #8D9AAB",
"X. c #8E9AAA",
"o. c #8F9BAB",
"O. c #8C99AC",
"+. c #8F9AAC",
"@. c #8E9BAC",
"#. c #8F9CAD",
"$. c #8C99AA",
"%. c #929BAC",
"&. c #919DAD",
"*. c #909DAE",
"=. c #929DAF",
"-. c #919EAF",
";. c #929EAE",
":. c #939FAF",
">. c #919DAD",
",. c #939EB0",
"<. c #929FB0",
"1. c #949FB1",
"2. c #929FB0",
"3. c #97A0AF",
"4. c #94A1B1",
"5. c #95A1B1",
"6. c #95A0B2",
"7. c #94A1B2",
"8. c #96A1B3",
"9. c #96A3B3",
"0. c #97A3B3",
"q. c #95A2B2",
"w. c #99A5B5",
"e. c #99A4B6",
"r. c #99A6B6",
"t. c #9DA6B7",
"y. c #9AA5B5",
"u. c #9CA7B9",
"i. c #9BA8B8",
"p. c #9DAABA",
"a. c #9EAABA",
"s. c #9DA9B9",
"d. c #A0ACBC",
"f. c #A4AEBF",
"g. c #A4B2BF",
"h. c #A6AFC0",
"j. c #A5B1C1",
"k. c #A5B0C1",
"l. c #AAB5C5",
"z. c #ACB8C8",
"x. c #AEBACA",
"c. c #B2BECE",
/* pixels */
"2 q 6 q u t l U V ..l u 2 2 M i U U ^ U ^ U r 0 u 6 ..u l r t U M ..M U t q > r i l U ' U ^ ..p q q t , q 8 0 t u u ' Q ^ M t U ",
", 0 7 t M V ^ U ^ ^ i u 6 8 V t l U ' V U V r 0 q 6 t q t p ^ V l V M t q t 1 u t l V U M V ^ t q 0 0 , 8 q q ' U V ..Q U M u ..",
"q q 0 t V ' ^ U ^ i u l 3 2 0 t ^ U ^ ^ U u 0 q t : q u t i q u V M U q 7 t , r 0 u U ' ^ ..' t 0 u 2 , l 6 q ' U U ..M l u t ..",
"0 0 q M U U M U ^ q 0 t 3 5 0 i U V U U ^ l q 0 0 - : 3 2 6 i l U U ' t 7 r : 8 0 l ' ^ U U M q 0 u 3 7 q q ..V U U ' v i t t U ",
"6 q p ..U U U ..t t q 7 : 6 0 t V ....M V V 0 2 q - q t t U U U p l V u q q 1 0 r U ^ V V ' ' u t u $ 2 q t U V U ' U v u t u ..",
"7 l U U V ..' l i l l t , 7 q M ..U ^ ' ^ t 5 2 U , 0 U ^ l U i t t u u r q 3 q q V U U ' ..U t 3 % : 3 l &.M V U ^ l t t t u ..",
"2 u i U ^ U l q r 0 6 t 3 7 0 M ^ p V ..^ r 6 0 u 2 u l u &.l t u q u t r t 3 q r U ^ U ^ M t 6 6 t U : l t U ' U ^ p t t t u U ",
"0 &.U ..l 0 q t q q 0 l 6 8 r +.+.0.0.V t t q q t 3 t 0.V ^ t r u 0 l t t V 5 q p +.' U +.+.U u U ..0 6 &...V ' ' +.U v M p l ..",
"3 0 q u 6 t u 3 2 2 7 3 - 2 q r 0 6 , & * , , , 2 ; O ; u 7 3 6 6 2 , 0 6 2 : 7 q t t q q 0 q 7 6 3 , 2 q q t q u u 6 , 6 0 3 4 ",
"- u 7 q u q 6 7 5 8 t q O ; r 6 3 2 2 3 3 3 3 6 7 . - 6 6 0 7 7 q 7 : 2 q , . 7 7 6 6 7 0 q 7 , 6 0 * $ u 6 q q 0 0 6 6 6 0 0 7 ",
"t d...0.r.' l i M r q %.3 q ,.i ../ +.1.0.1.0.r.t., &.a...0.r.z.a.0.' U r.&.2 &.^ ^ ^ / U 1.U r 0.j.i 7 h.U 0.i...l l l t u U G ",
"0 u t ' p u t 6 6 8 3 7 5 7 6 u i u t q r t t t ..3 l U U U 7 : 7 7 l l l ..3 0 7 H u q u t 8 2 l t q 7 0 q U u l r 7 6 6 3 6 u ",
"6 t l U ^ ' t 0 r 8 q 0 % t q 0 U U V i i l i t t & 6 t 7 2 0 l p t u u l U 7 M q 0 U +.t t ..& t l 6 1 r M M +...i q 0 0 7 0 G ",
"0 p ..U ^ ..p t l 8 0 - : q u 0 p V ^ ' U M l p u : r 6 6 u ' ' l p t i V i 5 t 0 t U ^ #.V &.2 t i 3 5 u i ,.V U l l i q 0 q 0 ",
"0 u M l l U ' ..U i : 7 - 0 q q t l ^ ^ U U l t i 1 0 , q ..M M U l t t r t 5 t 0 q M l U l ' r 8 M 7 6 U t U V U U O.Q t 0 0 q ",
"8 i t i +.V U ^ U U - 0 6 3 t 0 t U / M U ..i 7 0 , 0 2 r U U M V U l t r 0 : r r 0 V U ' ' V U 2 q 5 2 i i t ' V ..Q M v 8 0 &.",
"7 p t y v ^ ^ U l 0.2 q 6 5 u q q U U ' ..U V 0 8 : q r U V V V V V M M q t 1 q q 0 p ^ U U V +.0 6 6 2 U u t ^ V ..Q O.v r q ..",
"0 u M i t ' U l ..+., r , o : 0 t ..U V V U ^ q t 2 q q M V l u V U l V u M - q q r M ^ U ^ U U i 3 , 2 0 U t t ..U Q v ^ ' 7 U ",
"0 l 2 3 q i #.&...3 3 &.: 0 2 & 0 p l U U ' U q q 2 8 q u t t t i U U ..u t 2 ..t t l ' U U ..M i 0 3 : - & 7 l i V ' #.^ U u l ",
"q u > > 2 0 u , 2 7 u l , q ..q r ..l 7 7 l ' 0 0 6 t u t t t t t t i U M 0 7 i u t t ^ ^ l ' U U 8 7 q l u 3 5 t #.i i ..l t q ",
"0 u r 0 t t , 3 &.0.l y.6 q l U U U ..r.r.&.U U q 6 u l u l l p q u 0.....q 2 l p l u ^ ..' &.+.^ H 7 2 &.u ..^ &...9...U &.&.%.",
"- : 2 , - - , t 6 6 6 5 : & : 2 , 3 7 6 7 0 0 3 7 @ : 3 2 : ; , : , 2 0 $ . & : 1 5 3 6 0 0 7 7 7 6 : & ; 6 , - , 7 0 6 7 3 6 0 ",
"& U u q 0 0 t u t l q Y % : U q q t q 0 0 q q 0 q O 3 q t q t U l 0 q , 2 3 o u 0 q q t l q 3 7 6 u ; @ Y u 0 r 0 t q l l 0 u 7 ",
"7 u 0 0 t u u Y 0.&.Y a.7 G r.&.&.....U l U l U H 3 r.....j.l.a...0 l u %.%.3 t.0.&...0.r.q : 7 t 0 0 3 G 7 t t t u ' ..0...;.0.",
"2 7 7 7 0 0 r V V M t r 6 0 l r t r t r t V t 8 q 3 ..M l t t q 6 M M ^ M t 1 i t u r q ' 3 : 2 5 2 2 2 0 3 q 6 6 t M V ' t 0 ..",
"6 r 8 0 r q p V V ..M t 2 5 u t l i M l U ..i q u 6 +.H i r u u M U l V %.6 % i t u l M ..l 6 2 & - 0 2 u 7 6 t q l U V ' l t l ",
", q 8 t l t ' ' V U l i 3 6 l p M U ..^ U M r 8 u 3 l u u t l V ..M u ^ 6 8 : u U i U U V ,.&.4.q : 3 : q 0 q t u M ' V ^ V u U ",
"3 q 8 t U M ' U ' M i H 5 6 t r l V ..^ U l r 0 t , r q t u U M u ' V 6 , 0 2 t 0 q ..' ^ M V t U u : : 0 6 t ' ..V ^ ' V u u U ",
"q r 0 q ....U U V p t l 2 2 0 r U U ^ U U p q q 0 : r q u l U l M ^ U 6 : 6 : 0 q ....l U U ..q 0 ^ - 6 t 6 u V ..l M V p t u H ",
"6 q u U &...U ..p p q i 3 3 q p ..^ U V U i 0 q 0 , u t l l ^ V ' p M i 1 7 : 6 8 #.l ' U ' ..u q u : 7 q t ' p V ' &.V t t u E ",
"7 t u u 7 : - ; 6 i t l 5 6 q t U U U U ..M r u t , t u U M U V u p U q u 0 1 7 t +.M &.l M ^ ' q i 6 > u l V #.U #.,.' u t t H ",
"6 0 2 3 2 : 3 q $ 0 u U 5 6 q p U ^ ^ U U r 6 8 ..2 t i +.M l i t r t u t q 3 6 r l ' ^ M ' +.u p t u , U l l 6 l t t p ..U u U ",
"3 t i U V u i 0 ; & u l 6 7 q u U U u ..l 3 3 7 ..2 u / r ^ M q t t u t q t 5 7 e v ' Q M Q V i V 0 0 : H u 0 l / U 7 & 2 H ..%.",
"t 0...t ....r p 7 . u &.3 q u ,...U l ..u t &.&.u 3 6 U l 6 u r p p u u l l 3 u U ..#.#.#...U i q r 7 7 0.0...U +.0.U H 3 7 &.l ",
"& 1 6 7 3 8 6 : % O , - $ - 3 3 : , 6 7 2 , 3 : - @   % 6 & : : : ; % 2 , & @ 2 6 6 6 6 6 3 2 > 2 & % - 3 , 7 6 6 6 > # # 2 - , ",
"3 t.u U &.U u u u l l a.& 2 &.u u l u l U l U ..&.@ q ..u l ..0.r.0.0.U U q # i u u u u l U ..U l 0.7 & j.; u &.U l t U u l 0.q ",
"q 3.u &.U u u 0 q 7 3 q 3 0 u u i l u l ..U M ....0 U 0...p ..&.&.&.a...U &.3 G t l l u u l U U U 0.i 0 %.6 U &.l r 0 7 0 6 6 U ",
"7 t u ....^ r 7 0 0 8 r , q 0 q / l u t r t u r M , t i M ..t t q ^ q u %.l 5 r q l ^ l t t t t r u 8 3 i : M M ' i 7 0 0 0 6 l ",
"7 t l M ^ ' t r t 8 8 q 3 8 t 0 l M U U H ^ H u u @ 7 M U l U ..M q r l V U 6 u 7 t V U M M V l l p 6 1 t 7 0 &.l M q t 7 0 q w ",
"7 i ^ ' V V #.i i r 0 q - t t 0 i / ^ M / i 8 q i 2 i 8 M ^ ^ p Q v t t r M 8 t 0 r v ^ ^ Q Q Q p M 6 5 0 t 0 r ' l U M r 7 0 q ",
"7 U t U ..U U ..' r 7 u : 3 r 0 r V ..p ' r 7 > 3 : u 7 q V ' M V V p u 0 r & 7 r p U V U ..M M q t 7 2 q 7 0 i 0 U U U t 7 q u ",
"7 p t u U ..U M M t 8 t 6 7 r r t +.' V ' ' +.0 6 : t 0 t M U l p M M p q p $ @ ; : ' &.^ l ' ..u 7 6 6 7 2 0 q t u ^ ^ i 0 q ..",
"q u t t l ' M ..#.' u q 3 2 q q t +.u U ' V U q q > r r l U V M ^ U U M 0 t , 7 > $ @ V l U M ..u 0 2 > 7 6 0 q t 0 V V V t 0 ..",
"6 p p t t ^ ^ M ^ U ..U 2 , 5 : ; ' 4.V V V p 0 q 2 t r u p i t M i p ..M t 2 u p &.7 > &.V &.M t t 8 5 q 5 6 0 q 8 p V ' U q H ",
"0 l t u t u ..+.t 0 2 7 - 2 6 > > q 4...&...U t 0 3 u t t u y t t ^ U V i q 5 ^ r 0 ^ &.U U U ..U 7 6 7 r 5 8 0 6 r V V ' U u i ",
"q l q u u u ..U ; 0 0 r ; : , 5 3 6 p 6 6 u ..8 q 3 u u r t u t q p l U ..t 6 u u u u l l ..l u U u 0 6 u 0 0 7 3 i ..U l l l G ",
"2 U U t q U U 6 r %...%.9 3 2 1 2 2 0 6 1 5 u l u 2 q u u t t u 0 t H ..q , 2 u q l t U ..U ..3 $ 9 0 2 u t q 0 0 U 0...U H Y E ",
"@ ; , ; & ; ; & 3 3 3 < + O - & $ : > 2 3 1 1 2 , O & , , - & : : - , , $   O & : : : 2 3 , 3 : X = & O ; , , & : 2 6 3 3 3 , 2 ",
"0 d.U a.0.' ^ ' l V l r.: 7 0.U V U ' ..,.^ &.0.0.& l 0.+.0.,.j.g.l.g.&.0.l & &.' V M V ^ &.,.#.,.d.0 , l.&.%.i.&.U l U M U &.u ",
"7 U t ..M i q 7 7 8 2 7 2 0 q u i i t r l l V p &.6 U U V M u V V U &.l U &.3 t r t i t t u l u l ..t 7 H q ..l u q 7 0 6 2 7 u ",
"0 t l ..U ..t 0 q 7 0 u 2 q 0 q U U t u u t t t u : 0 U U p U u u q p p u ..7 q 0 u ^ l t t u t r l 7 6 t u %.^ ..u 7 0 r 7 0 G ",
"6 q U U U U p t t 0 7 t : t 0 0 l ..V ' V M l l u & 7 l ^ l ..l i u t u l H 6 i 8 t ....V V U l t U 2 : u l M U U l t r r 7 0 u ",
"7 l ' ^ +.U U U M t 6 t : 7 t q t ..U ^ U ' u 0 u 2 t 0 i U l M p U t r u t 2 t 0 q p U ^ U ^ U l p 6 6 U l ^ ^ U U ^ l q 8 0 q ",
"6 M u u ..M V Q ^ t 0 t : : r 7 t U U ..U t 0 7 6 : l 7 r U V U ^ M l u 8 6 , t r r u U U U U U q 0 3 3 l r M U +.l U ^ t 0 0 u ",
"8 p t t U ^ Q ^ U V 0 0 q 2 0 0 t l U U M t t t 6 & t 0 t M V M U u M V 0 7 : 8 0 r l ' U U ^ U t q 3 3 l t u V H V +.+.u 0 0 ;.",
"0 u t t p ^ Q Q ' V t u 2 2 t q r ..^ 0 t U ' 0 q , q 6 V U l V U V U p u l & $ > 6 i ^ U U ' U t 0 2 6 u u u t / ^ ^ U +.u 7 G ",
"7 l t t u U ^ Q V ^ U p 3 7 V r M t t 7 +...M q q 2 t : M p t u p U l U p t 1 l t 5 0 ^ M ' V ^ l 8 6 6 l t p p i i ^ V ..U l l ",
"q u u l r u +.^ ' V t l : u V r q 0 i +.l t U t 0 5 t , 6 i r t u V U ' i q 5 / t U i U ..l ..U u r 8 5 t H t ; 3 V 0 0 U u t q ",
"0 ..u u l l l ^ ..l ....2 t l q u t ....t u ..q t 3 u t 2 t l t q t U u &.U - 3 6 0 3 : l ,.U ..l 0 7 7 0.l @ & l U ..i q t 3 u ",
", u q 0 6 t U U u l u t 7 2 2 6 t q U 6 q ..U t q , 7 u t 3 7 q 7 q l U 2 & , q 7 6 t 7 2 q l l U q 7 : q 7 & 7 0 ..U U U u w %.",
"@ 3 6 2 : , 6 7 6 7 2 q O $ : : 3 2 6 : 2 6 , 6 2 o & , 2 - : 2 3 , : 3 & O O - , 3 , 3 2 2 3 2 : 7 & O 7 , 3 - # 2 6 3 6 3 3 , ",
"0 &.U U ..V i &.0.0.&.z.2 u l.0.0.0.&.&.U U U ..%.; ..a.&.z.c.l.j.U l 0.a...; j.u.0.0.a.%.....^ ..r.7 2 a.u U l 7 t &.a.r...f.&.",
"3 6 2 6 6 7 t l l ' q t 7 t ..t u p r t r i p q t 3 ..M t #.t t 6 u U l l l 3 ..u t t q t i 0 V t 0 q 1 7 1 6 0 6 3 l u l u 3 %.",
"2 t 0 0 r q t O.V U M u 3 6 p r t t i t U ' t 0 r 6 ^ U p t t u M l ^ l ' q & i t t t t v i +.^ r q 0 2 t 0 0 0 r q l O.' U 0 U "
};
