/* XPM */
static char *_fe7b3870fe44f1de3bbc1a13fcbb512SNWS3q7xAMNWFCd3[] = {
/* columns rows colors chars-per-pixel */
"64 64 131 2 ",
"   c #0B131E",
".  c #12161F",
"X  c #0D1520",
"o  c #101721",
"O  c #141B25",
"+  c #191D26",
"@  c #171E28",
"#  c #1A1E29",
"$  c #192026",
"%  c #1C232D",
"&  c #1F282F",
"*  c #1E2631",
"=  c #1F2832",
"-  c #21252E",
";  c #22282E",
":  c #212731",
">  c #232A35",
",  c #292D36",
"<  c #262E39",
"1  c #2B2F3A",
"2  c #2B2F3B",
"3  c #292F39",
"4  c #282E3C",
"5  c #292F3D",
"6  c #292F3A",
"7  c #273037",
"8  c #273039",
"9  c #27313B",
"0  c #26303C",
"q  c #26303A",
"w  c #29303A",
"e  c #28313A",
"r  c #28303B",
"t  c #2A313B",
"y  c #29323B",
"u  c #2C3039",
"i  c #2D313A",
"p  c #2C303B",
"a  c #2E323B",
"s  c #29313C",
"d  c #28303D",
"f  c #2A303C",
"g  c #2B313D",
"h  c #2B323C",
"j  c #2A333C",
"k  c #2A323D",
"l  c #29313E",
"z  c #2B313F",
"x  c #28323E",
"c  c #2B333E",
"v  c #2A323F",
"b  c #2D313C",
"n  c #2C333D",
"m  c #2F333C",
"M  c #2E323D",
"N  c #2C323E",
"B  c #2D333F",
"V  c #2F333E",
"C  c #2F333F",
"Z  c #2B343D",
"A  c #2D343C",
"S  c #2D343E",
"D  c #2E353F",
"F  c #2D363F",
"G  c #2B323C",
"H  c #31353E",
"J  c #30343F",
"K  c #31353F",
"L  c #2D3341",
"P  c #2D3540",
"I  c #2F3640",
"U  c #2E3740",
"Y  c #2E3641",
"T  c #2D3542",
"R  c #2F3742",
"E  c #2E3541",
"W  c #2F3841",
"Q  c #2F3841",
"!  c #313541",
"~  c #303741",
"^  c #333740",
"/  c #323641",
"(  c #323642",
")  c #333742",
"_  c #313641",
"`  c #313840",
"'  c #333A40",
"]  c #313842",
"[  c #303942",
"{  c #303843",
"}  c #323943",
"|  c #353942",
" . c #343843",
".. c #333A44",
"X. c #323B44",
"o. c #323A45",
"O. c #353944",
"+. c #343B45",
"@. c #373B44",
"#. c #363A45",
"$. c #353C46",
"%. c #343C47",
"&. c #363D47",
"*. c #333A44",
"=. c #383C45",
"-. c #383C47",
";. c #383C47",
":. c #373E48",
">. c #373F49",
",. c #383F49",
"<. c #3A3E49",
"1. c #3A3F49",
"2. c #39404A",
"3. c #3C4049",
"4. c #3E424B",
"5. c #3B414D",
"6. c #3B424C",
"7. c #3A424D",
"8. c #3B434E",
"9. c #3D414C",
"0. c #3C434D",
"q. c #3E454F",
"w. c #3B424C",
"e. c #3F4650",
"r. c #3E4750",
"t. c #42464F",
"y. c #42464F",
"u. c #404652",
"i. c #404652",
"p. c #454C54",
"a. c #454C54",
/* pixels */
": : > : 3 % 3 ( w > S > > > - % : # : - : - : # # 3 > > : > > % - > : > 3 % 3 ( w > S > > > - % : # : - : - : # # , > > - > > % ",
"n > S w w 3 :.w n > : w ( > % =.I 7.%.% % % * > 3 g 3 n > : > w n < 3 w > < <.n n > : w ( > % =.I 7.%.% % % * > 3 g < n > : : 3 ",
"g > g < < > } : > < > 3 < > : e.> n > % w > : : > < < < : < > > > > < 3 > < ..: > < > 3 < > : e.> n > % w > : : > > < > : > : > ",
"g g g < g > w w < w g g * < } %.: % : < I > > * * > < > > } > % > g 4 g g > w < < w g g * < } %.: % : 3 I > > * * > < > > I > % ",
"g g < > < > w w g > < < > : g < w > * : > > < * * * > < > g * % < I < < > > g g g > < < > : g < w > * : > > < * * * > < > g % % ",
"3 < < > : w ..: > > > > 3 % > g 3 > % : S > > > % > > > * < > : < 3 < 3 * w ..: > > > > 3 % > g < > % : S > > > % > > > * < : : ",
"$ % : * # : w # + % % : : # * > @ $ % > > O @ @ # : * : % > : % O % % > $ : 3 O + % % : : # * > @ $ % > > O @ @ $ : * : % > : $ ",
"- a J ( J n n n ( - % +.I I +.I a > > 3 , , +.%  .( a 0.0. .n 3 - n a  .n n n ( ( - % +.I I +.I a > > 3 , , %.%  .J 3 4.4. .a , ",
"> g g 0 < I 3 > 9 * 5 L < L > < g < < < > < w g < > > > > > : > > I w g < g g : 9 * 5 L < I > 9 g < < < > < w g < > > > > > = > ",
"> I w g > > > g < % < < * < > < > > > > > < > : < > > > > > > < > } < g > > 9 w < % < < * < > < > > > > > > > : < > > > > > > < ",
"> I > g < < > : - : S > * < < = * * % * > > : > < > > > < > > > * Q > g > > > > - : S > * < < = * * % * > > : > < > > > > > > > ",
": } < > > > < : ; > } > > > > = : * * > > % # - > > > > < > > > > I > > < < < : ; > } > > > > * : * * > > % # - > > : > < > > > ",
": g w : > : > * + $ : = : % = : * % * * % $ $ % > < : > > > > > * w n > > % : : + $ : = : % = : * % * * % $ $ % > < : > > : > > ",
"% * > % # O % : $ < S < > > : $ O # % $ @ % % + * : $ $ % % > > > % : % % # $ % $ < S < > > : $ O # % $ @ % % + : : # $ % % > > ",
"g ( <.3 o : n 0.w 7.7.I g n > o w < I ..I I w # % % O $ % * g w g I 0.3 . : w 7.w 7.7.I g n > o w < I ..I I 3 # % % O $ * * g g ",
"< < a , % t.S * * = % > * : - ; 2.: % < : > > - +.:.g g w > w > < > S > % p.S % * = % > * : - ; 2.: % < : : > - +.=.a n 3 > n > ",
"< < < > > Z > > > > : > > * : > ..* > > > > : % } > > < * * > % > < 9 > > g : > > > : > > * : > ..* > > > > : % I > > < % * > * ",
"9 < 9 : : I > > : < > > > : * * I > > < > < > > > 5 > : : * : n 9 < 9 : : I : > : < > > > : * * I > > > > < > > 3 w : % > > : < ",
"> * > > > I * < > > > > : * * > > > < g < 5 > > : % > < : > > % : * > > > I * < > > > > : * * > > > < g < 5 > > * % > < : : > * ",
"w > > * : ( > g > > > > : * % % 3 n 3 < > > * < - 3 3 > : : > a < > > * : ( : w > > > > : * % % 3 n 3 < > > * < : 3 < > : > > 3 ",
"= > w > > ( @ X O O % % % > * # % % $ $ : % $ % # # # % # # % # * > w : > ( @   O O % % % > % # % % $ $ : % $ % # # $ $ # # % @ ",
": * % % # $ O * : O % * * * * > > ; % > } , ; $ , +.: : u.:.% : * * % % @ $ O % : O % * % * % > > ; % > } , ; $ > %.> > q...% > ",
"S g g <. .< < 7.<.> w w : % % > S w : < w * % $ w 3 : > 3 > : , g g n <.( 3 3 :.<.> w w : % % > S w : < w * % $ n 3 % = g < * > ",
"< 3 : a a 3 > * % % g : @ > : % % * * L < % * < & O $ > * = 9 7 > g : 3 3 w > % % % g : @ > : % % * * L < * * < : O % > * * < > ",
"< > < < > > : : > : 3 : % > % % = * = w > $ % : > $ % : : $ > : w > < < > > : : > : 3 : % > * % = * = w > $ % : > $ % : : $ > % ",
"g > 3 3 < 3 > > , % : > : % $ > : : : > > - : : - % * : : % > , g > 3 3 < < > > , % : > : % % > * : : > > - : : % % : : : $ > > ",
"% @ % % * * % : # % : * $ @ O # % % # # # % % + O + $ % * $ % % % @ % % % * % * # % : * $ @ O # % % # # # % % + O $ $ % * $ % % ",
"3 : < w < < 3 S % S +.w < g > % > > > > 3 , > # - , : : g < : % w : < w < < 3 S % S +.w < g > % > > > > 3 , > # - , : : g > : % ",
"w > w w > > > w : < > : > > > > > 9 w ( } S < % , J < > S n > : w > w w > : > w : < > : > > > > > 9 w ( } S < % , J < > S n > : ",
"> > w > = = : < > < : : > * : > = > > < < < < > : n > > > > : : > > w > * = : 9 > < : : > * : > = > > < < < < > > S > > > > : > ",
"> > < > * > > < : n > > < > > * < 0 < < < 4 I L > Z < 3 < < > 3 > > w > * > > < : n > > < > > * < 0 < < < 4 L L > n < 9 < < > 3 ",
"9 9 g > = > > = % > : > < > : > = < < 5 g g g > * > = 0 0 g > * 9 < g < > > > = % > : > < > : > = < < 5 g g g > * < : 0 0 g > : ",
": : > : 3 % 3 n w > S > > : % % - + > > > > : + # , > > : > > % : > > > 3 % 3 J w > S > > : % % - + > > > > : + % > > , - > > # ",
"I > n < 3 3 <.n n > : w ( > % %.} q.%.% % % : > 3 w < S > : : w n 3 w w > 3 <.n n > : w ( > % %.} q.%.% % % : > w w < S > : > 3 ",
"g > g < < < ..: > < > 3 < > : e.> g > % n < : : > < < < : > > < > > < 3 > 3 ..: > < > < < > : e.> g > % n < : : > > < 3 : > > > ",
"g g g < S > w 9 < w g g * < } %.> * * < g > < > * > < > > I > * > g < g g > g < < w g g * < } %.> * * < g > < > * > < < > I > % ",
"L L < > < > w Z g > < < > : g < g > * * > > < : * * > > > g * % < I < > > > S g g > < < > : g < g > * * > > < : * * > < > g * % ",
"3 < 3 > * 9 } : > > > > w % > g > > % > } > > : * > > > * 3 > : < 3 < 3 * g ..> > > > > w % > g > > % > } > > : % : > > * 3 > * ",
"+ % : : $ : 3 O + % % : : # : > $ $ $ : : o # $ # : * * % > : % + % - > $ > w O + % % : : # : > $ $ $ : : o # $ $ : * : % > > $ ",
"- a J ( n w S I ( - % +.( ( +.( a > > 3 , , +.# ( ( n 0.<.( n 3 : J n  .S g S I ( - % +.( ( +.( a > > 3 , , +.#  .J a 4.4. .n , ",
"> g w 0 < I 3 > 9 * 5 L < L > < g < < < > < w g < > > < > > : > > I w g < g g : 9 * 5 L < L > < g < < < > < w g < > > > > > = > ",
"> I w g > > > g < % < < * < > < > > > > > > > : < > > > > > > < > Q < g > < 9 w < % < < * < > < > > > > > > > : < > > > > > > < ",
"> I > w < < > : - : S > * < < = * * % * > > : > < > > > > > : > * Q > g < > > > - : S > * < < = * * % * > > : > < > > > > > > > ",
": } < > > > < : ; > } > > > > * : * * > > % # - > > > > 9 > > > > I > > < < < : ; > } > > > > * : * * > > % # - > > : > < > > > ",
": g w : > : > * + $ : = : % = : * % * * % $ $ % > < : > > > > > * w n > > % : : + $ : = : % = : * % * * % $ $ % < < : > > : > > ",
"% * > % # O % * $ < S < > > : $ O # % $ @ % % + * : # $ % % > > > % : % $ # $ % $ < S < > > : $ O # % $ @ * % + : : # $ % % > > ",
"g ( <.3 o : n 7.w 7.7.I g n > o g < I ..I I 3 + % % O $ % * g w g I 0.3 . : w 7.w 7.7.I g n > o g < I ..I I 3 # % % O $ % * g w ",
"< < a , % t.S * * = % > * : - ; 2.: % < : : > - +.:.g g w > w > < > S > % p.S % * = % > * : - ; 2.: % < : : > - +.=.a n 3 > a > ",
"< < < > > Z > > > > : > > * : > ..* > > > > : % } > > < * * > % > < < > > g : > > > : > > * : > ..* > > > > : % I > < < % * > * ",
"9 < 9 : : I > > : < > > > : * * I > > > > < > > > g > : : * : n 9 < 9 : : I : > : < > > > : * * I > > > > < > > 3 w : % > > : < ",
"> * > > > I * < > > > > : * * > > > < g < 5 > > : % > < : > > % : * > > > I * < > > > > : * * > > > < g < 5 > > * % > < : : > * ",
"w > > * : ( > g > > > > : * * * 3 n 3 < > > * < - 3 3 > : : > a < > > * : ( : w > > > > : * * * 3 n 3 < > > * < : 3 < > : > > 3 ",
"* > w > > ( @ X O O % % % > % # % % $ $ : % $ % # # # % # # % # * > w : > } @   O O % % % > % # % % $ $ : % $ % # # $ $ $ $ % @ ",
": * % % # $ O * : O % * % * % > > ; % > } , ; $ , +.: : u.:.% : * * % % @ $ O % : O % * % * % > > ; % > } , ; $ > %.> > q...% > ",
"S g g <. .< < 7.<.> w w : % % > S w : < w * % $ w 3 : > 3 > : , g g n <.( 3 3 :.<.> w w : % % > S w : < w * % $ n 3 % = Z < * > ",
"< 3 : a a 3 > * % % g : @ > : % % * * L < % * < & O $ > * = 9 7 > g : 3 3 w > % % % g : @ > : % % * * L < % * < : O % > * * < > ",
"< > < < < > > * > - > : % > * % = = : g < $ % : > $ % : : % > % < > < < > > > > > - > : % > * % = = : g < $ % : > $ % : : $ : % ",
"g < < 3 3 < > > a - : > : % $ > * : : > > % * * - % : : : % > , g > 3 3 < < > > a - : > : % $ > * : : > > % * * % % : : : $ > > ",
"% # $ % % % % % # % : : % @ O # # % # # # % % + o # % % % $ % - % @ % % % % % * # % : : % @ O # # % # # # % % + O $ % % % @ % % ",
"< > > w < > w S % n ..w < g < % : > > > 3 , > # - , : > g > : % < : > w < < 3 S % n ..w < g < % : > > > 3 , > # - , : > g > : % ",
"3 > w w > : > w > w 3 > > > > > > 3 g } } S < % , ( < < I S > - w > w w > : > w > w 3 > > > > > > 3 g } } S < % , ( < < I S > - ",
"> > 9 < = % : > > < : : > * : > > > > 9 9 < < > > n > > < < : : > > w > = = : > > < : : > * : > > > > 9 9 < < > > n > > < < : > ",
"> < < < : > < < : g > > < > > : < g < < < 4 I L > Z > < < < > < > > w > : > > < : g > > < > > : < g < < < 4 I L > n > 9 < < > 3 ",
"< 9 9 < > > < > : w > > < : * * * < < 5 5 g g > * > = 9 < 9 > : 9 < g > > < > > : w > > < : * * * < < 5 5 g g > : < = 9 q 9 > : "
};
