/* XPM */
static char *_267876cdcc14359bcfe61313b057827KQvlO7kFdBd5k4f4[] = {
/* columns rows colors chars-per-pixel */
"64 64 165 2 ",
"   c #020C16",
".  c #020E1A",
"X  c #03121D",
"o  c #0A141D",
"O  c #0D181F",
"+  c #101518",
"@  c #11181E",
"#  c #041523",
"$  c #0A1622",
"%  c #061925",
"&  c #0B1A25",
"*  c #03172B",
"=  c #051B2B",
"-  c #0B1D2B",
";  c #101622",
":  c #131C25",
">  c #111E2B",
",  c #191D29",
"<  c #051E31",
"1  c #0A1E31",
"2  c #101F32",
"3  c #0D212E",
"4  c #13222D",
"5  c #1B252F",
"6  c #062135",
"7  c #0D2333",
"8  c #07273E",
"9  c #0C253A",
"0  c #0E293D",
"q  c #122534",
"w  c #142936",
"e  c #1B2A36",
"r  c #122639",
"t  c #132B3C",
"y  c #1A2D3C",
"u  c #1B313F",
"i  c #222F38",
"p  c #20323E",
"a  c #072A40",
"s  c #0E2B42",
"d  c #0C2E49",
"f  c #132D42",
"g  c #182F42",
"h  c #142E49",
"j  c #0E3145",
"k  c #0F3248",
"l  c #153145",
"z  c #1B3245",
"x  c #15334A",
"c  c #1B354B",
"v  c #1E394E",
"b  c #153653",
"n  c #1A3651",
"m  c #173952",
"M  c #1D3B52",
"N  c #173C5B",
"B  c #1D3E59",
"V  c #213444",
"C  c #253946",
"Z  c #21374B",
"A  c #223A4D",
"S  c #293D4C",
"D  c #223D52",
"F  c #293E52",
"G  c #223E5A",
"H  c #2A3F5A",
"J  c #1E415C",
"K  c #254155",
"L  c #2A4255",
"P  c #24435B",
"I  c #2A455C",
"U  c #2D495E",
"Y  c #32465A",
"T  c #334B5E",
"R  c #36505F",
"E  c #1F4462",
"W  c #244561",
"Q  c #294661",
"!  c #274964",
"~  c #2D4B64",
"^  c #264969",
"/  c #2C4E69",
"(  c #324D64",
")  c #3A4F62",
"_  c #314E69",
"`  c #2F5266",
"'  c #2E506B",
"]  c #355166",
"[  c #3F5060",
"{  c #305069",
"}  c #345068",
"|  c #33536C",
" . c #31536E",
".. c #35556E",
"X. c #37556F",
"o. c #34526C",
"O. c #3A546B",
"+. c #3B576F",
"@. c #3A556C",
"#. c #3D596F",
"$. c #3D596E",
"%. c #2F5272",
"&. c #2E5272",
"*. c #335570",
"=. c #325571",
"-. c #355773",
";. c #355572",
":. c #395771",
">. c #385776",
",. c #395673",
"<. c #345870",
"1. c #355971",
"2. c #355B72",
"3. c #365874",
"4. c #365975",
"5. c #365977",
"6. c #375A76",
"7. c #365974",
"8. c #385871",
"9. c #3D5971",
"0. c #3F5B71",
"q. c #3F5B73",
"w. c #395B76",
"e. c #3F5D75",
"r. c #3C5A74",
"t. c #305778",
"y. c #345878",
"u. c #375A78",
"i. c #365B7A",
"p. c #385B79",
"a. c #3B5D78",
"s. c #3B5D79",
"d. c #3D5F7B",
"f. c #3D5D79",
"g. c #3B607D",
"h. c #3E617C",
"j. c #425768",
"k. c #435D6E",
"l. c #425E74",
"z. c #405E76",
"x. c #425E76",
"c. c #425D74",
"v. c #415E79",
"b. c #416275",
"n. c #466174",
"m. c #456177",
"M. c #446076",
"N. c #436179",
"B. c #41617A",
"V. c #476379",
"C. c #46627A",
"Z. c #41607C",
"A. c #40627D",
"S. c #40637F",
"D. c #44627C",
"F. c #49637E",
"G. c #385F80",
"H. c #3C6080",
"J. c #3E6281",
"K. c #416683",
"L. c #446481",
"P. c #496481",
"I. c #436882",
"U. c #486881",
"Y. c #426988",
/* pixels */
"& 6 9 q # = 9 = 0 9 - - % 7 t s t 9 < 7 9 t 9 c q 7 c D D v 9.3.% 9 c D v A D M D c ) ;.h > f c G v Z D I 0.A . 9 7 t = - = t 0 ",
"; 2 r $ , q > & - q - & - q - 7 q - % % - q 7 - - # 9 c A v ..3.- t c D D A D M D M Z / G $ 6 v M D D v M c.z 4 3 q - # > - 3 9 ",
"n.1.1.t T b.1.I I $.0.c.c.+.~ o.0.C.O.I C.e.~ ..e % 9 c A D :.=.q t v D D A D M v P z ' ~ & 9 c D D A v P N.c S c.$.U K ] n.e._ ",
"Q ^ K.9 0 P %.>.| / N J / p.3.a.W P a.d.W ! g.H.e 3 f c v I A.3.3 r x v v A D M v G S d.} & t f M D Z K a.| 0 q E W =.d.W J / y.",
"F G 0.3 - z M P S A v D x c v c c c L T D c I N.t 6 x M v I w.y.% 1 f c v A D M D x S A.~ # 9 0 M A Z G A.' 6 # l l D ( D c v I ",
"z ' D.t - l s x L A v D c D K v D c f A D c c 9.z 0 c M c M ~ 3.- 7 l M D A D M D M A | ~ - t c M A D c / N.l q f v c x c D c D ",
"1 D _ q $ r s g f l z g 6 0 l x 9 9 0 l f 8 s ~ e 1 t l t t v ( q t c G D A v M v G A ! / 4 z D M D D D P D.z % s f 9 f v g 6 f ",
"o . 1 & . # = 3 % - $ o o > 3 7 - # - - q = = 9 & % 3 7 % % * 6 3 r c D D A D D M M Z =.} % f v G D c v M 0.V   - - - - - # # & ",
"q ( ! W ! U t # O X o & X o o . o O o o o O o o $ o o # r K I P - q t c D G c D Z A G C.T # w V D K c v M c.g F ~ G s M U ~ G h ",
"- I ;.A...$.l.K # q z t 3 % % 4 $ - - % & $ # X X o O $ q D ~ +.* 9 g c M x l c c d N y. .* 0 l c c A x ~ 3.s c +.+.$.n.+.c.F._ ",
"- 0 M o.G v ] c.g ] ( c z z g V q r t r g t r = & . o o - r f U q w e w y q 7 3 w 7 f v D - t q t t q t f I t 1 c c ] I c M Q U.",
"= 9 D D v D M w._ ..B c D v f D z z D D D A A c q & $ o % < < c - = % # # - - & & & % - $ o & # % 3 # 3 # - & : 0 D D v M M } _ ",
"# 9 c c A K x 3.~ _ M M G v l A A z z A A D A D L t # # C $._ ~ / | ;...n I _ G v K ~ ..] _ _ o.o.] D z S q . @ 7 z c D M G 9./ ",
"- t f D D v P h.D O.P D v K K A A f 7 g g c v v c t % % g I | D.L.w.;.o.x o.F.e.w.H.Y.%.! W =.H.i.H.K.;.A.c.7 # = 7 D A v v G A.",
"% t l M v v I :.n ( A D c v v D l f z z t f v D G Z - % 7 9 c ~ U K D L t A F v D ~ } G v v D M ^ w.d.W b w.v = - C z z L D G ~ ",
"$ = 0 M G v v c.h O.P D D G M M D c D v v v D x c S > X 7 t v M M c v A l c c M A D c A Z S v D z Y F c P +.I 7 q q - y A v G o.",
"X 7 0 z D x M x.G 0._ P c v D D I P M c D I M k D x 6 . & 0 M M c D D I f l v v D D c D D M c D M v D c / A.0 z 3 - X # c M P n.",
"- 7 0 g g a s G ~ 0.I D I +.0.+.O.>.>.;.r.,.;.>.O.:.( 4 & t v v D D D P l A z v A A D c v D D D A c A v ~ +.9 y 0 q q - l M ..0.",
"o & # & > = - > s G G _ o.P l s t v ` { K v U ~ I P K q - t c A A v A A z A z c A D D D v A A c v A A v G ] z t f t e % z _ K.! ",
"y I P ( O.I L g _ P f M _ } } ~ r _ | ! ..o.~ :.~ J ~ z 7 f f A M K c v D v D v v K D I v l c c v A A D M ~ D t s 0 t - z K ;.t.",
"< K P ~ ~ J { 6 K O.c.0._ _ 0._ 1 P ~ J P D D _ I ! d.S = s s c c G v v K M D M v M c K c M l c M M D G c ~ K t a f f 7 7 z ~ h.",
"- 0 f v c v k.2 6 c U I c M _ P - 7 z A z z A c c M } S = f x F M v c t l v c M G v M c l U f c x D A v x ~ U l f s 0 t % q I v.",
"1 6 l x x m U 1 < f A D D c I I # 7 f g z f f c V t D C 3 f f y z t w 3 7 t t z z g z 9 t S 9 t 9 t t t 9 D Z z y 9 0 z q # r ( ",
"  o 4 # % % - $ 1 c A c D v _ 0.& & = % - - = = o . - > . 7 = . = - X # # - - = # - - % q - - - 1 % X - = = # w t z 0 6 y 4 X # ",
"Y c l L T Q I O 0 M M M M G w.y.e I B f g I I q f o.W x P ( I x q ( ~ ! M f P Q P I I f 9 G ( ~ U K t Y I I l L I U U v M { U c ",
"9.a.=.q.~ %.9.q q y A A z S @.P - ~ A.0.O.;.D.L g I :.e.c.( +.q.q L } d.N.c.C.v.D ~ $.+.+.c.c._ J...6 U :.=.K.e.P ~ F.P.r.o.;.U.",
"W 3./ I B N A.1 t f x D D l P ..% s W o.+.b ' ~ % t G ~ I x P ..3 7 l M _ O.P M c v U O.+.~ G G d.W * < c ! 3.B n n P ~ W M m P ",
"Z G D z A P c.& < s s l l 0 M 1.> 6 x M P m w.D X w z c D c ~ r.& - l x v D c G P c c D D x M o.L.A % & u A A D A v v v c v A v ",
"D c D S Z v.~ % $ - - 7 % % - 7 o * x A z P U.g X w A D D D +.| $ - f c D D D D x v D D D D M K A.( % 4 Z c Z S A c A A A c A A ",
"M M c z c =._ = V F D A A C z z $ 7 l S S G } D # t D D c U v.B X q c K v x v D D D D v v D v v t.e.7 t D P M l c c c D D c D c ",
"z v 0 7 x m ;.9 l o./ B I +._ 9.> f c z A M P L # z D l c ( v.! & 7 l M M A A c D l c D D D v v ' I * t c c 0 t f g x c g f z Z ",
"- - % X & t l & 3 t s s 9 t t K 4 6 P K c M ~ I = D G l D v ~ d.$ - c M v D v v D c v D v D D D ..I % - 7 7 - X 3 = * 9 7 # = - ",
"y 6 w u y : . O o o o o # % X : X w Z v D ( 0.I X p t f D c ~ | $ % t l s l K P t f v G M M v c o.+.9 z z z 7 3 = w y z z z t g ",
"$./ ] U.C.t c 7 % # # & 3 = & X $ r z G c D F.G X = l M f M d.W $ % q t t r t t X q t l z t 7 9 x v l O.e.K.d.;.~ 0.N.e.r.e.e.N.",
"9.i.I W =.x h.M z t q t Z Z z & # 6 s j l l U U X y f l z f v ..$ $ & 3 - $ X X o > - & - - $ & 6 = * f M ^ %.=.d./ B B m m P w.",
"v P Z G e.z } F v D A D D A t % $ X = = % X - q X X - q # % 7 r & - # % # $ o & $ X X $ X X & o $ $ & - Z c c A K D v v D v v v ",
"C D V ( o.7 P @.c c z x c A - X 4 S A D A t V C S t f S Z S g < D D t 9 - - & - & % q y 3 # # % ; o O o u Z Z S Z A D S A A S C ",
"z M A 1.! f %.~ D v A x G A r # = T w.1.I.h.r.h.e.d.d.w.r.F.w./ ~ o.v c A A z c z Z Z D D z t z & X X 3 f M G c D c c D D v v M ",
"t l z ' ' M i.P M I _ o.~ M c - o # c G Q o.( n x | =.B M ~ a.y.G ..M c v D c M D v f f c c c D z = # 9 0 x x f x l f f x G G c ",
"& < q 9 M D S.( _ } Q A.3.3.C.A + o w A A c K c D c c D A g I r.Q D.~ I I U ~ 3...~ I P M P ~ I _ Z = q q 7 # & 7 = 7 t r 9 9 6 ",
"& X % 4 3 - y w f f M x l G c c O X q D v M G v v D D A c M ~ >.z D M ~ ~ A z z c c D f q y t I / A 7 * * & & - & - X 3 4 3 & & ",
"O.G _ +.0.o.~ o.( x ( O.K ( $.o.& X 7 L D v v D c D D D K v P :.t ( r.d.~ K K c t +.+.+.I c ( o.p.O.$.~ c q [ ] r._ G | d.d.r.v.",
"w.d.| W W >.p.' @.* c +.+._ } ~ - - q C A D D v D D c v D M o.w.< c _ p.=.;.D.~ 7 K I ' e.9.e.! W ~ O.h.Q * A x P ;.w.;.W J W | ",
"P ( M M M G I I L * f c M M ~ ~ z - # y C A c G A v D D v D 9.G - 9 c P ! ! e.Q & 6 c B ! ~ K M b D v ;.A.r g m c I I K v D v z ",
"z z v D A c l ( I 6 c G c M '  .9 t 7 - - y z A A v G D v M 9.P - r z M M l } ~ X q v M M x c v D A A P V.- - x c D M c l c D P ",
"6 0 l l t 0 0 v T 7 < z D f c ( 7 t r q 7 - % e v D M v A v o.d.$ q f c G v +.~   q c M D A K A v V D M O.- $ w l l l f 0 c l g ",
"# - - q q # 3 7 - & % - q - # 7 t z 0 6 t t # X c D D D D c I >.& 7 r c D D +.c # 9 c D c A A v D A v B I q o & # - 7 3 % 7 - % ",
"O o O X o o o o o X o o X o $ X 9 c f 0 9 = # i A D D D v G ~ f.# - t D c P C.D 7 t 0 G D c D M M v M N +.4 X X $ . $ & X $ o $ ",
"& $ . $ & - - - - $ X # - - & o q z s s f 6 t A z D D v D K e.B $ s x A D x _ T 1 t c G M A v v M M P w.~ D A = # $ O & - - & o ",
"z t q = z z v c r q 3 q y y - X - z f 0 t - t S L x c c z F +.Q > f M A c M e.K - g G D v A D D D v G 9.~ P c.P Z 3 & e Z c q - ",
"v G v c K G M M D D c A D A - X q z t 0 t 3 3 y q - 7 = - e C T 4 t c A c P w.l # t v v v A v M Z c v I w.J 3.<.P c c D K M c z ",
"M G v D c v x n c v c v v A % o q g z g 7 % % - & 3 7 = 3 &   % & 0 x A S M | M X q f D D D c D Z Z c I N.B W a.P D v v v M M v ",
"A z z A Z A D v l c v D v A & o - 9 9 t = & - X 3 u D A t q y Z o 6 l c Z n ;.I X 7 f c D A c D D M c 0.I c _ +.z A D c f z A A ",
"v g g Z z Z c c D c v D v A - . z A f x t V V - 1 H r.L.v._ r.d.& * s A S P A.I # r v x c l c M D D n O.P 0 c.D C t f D F z g v ",
"I I c c l D D I I c c G M D y X z O.M M c c Z t # 9 x G >.| p.p.4 6 f A K I h.P - z D G l z x c D G c K +.x e.P t P ~ G x A P M ",
"d.h.w.P d.w.d.w.9.U _ 9.~ ~ F % f C.P M P K D v & % t c G M { { > f f f f 8 W U = f f I 0 z 6 f c z f M ..! 3.a.~ =.d.y.~ I o.d.",
"F c U Q I L L P U ( O.( P o.0.s 9 ( 0.U ] T U _ 5 # r A v c ~ P . # - q - X $ 4 . $ y z - : . 9 q q - - t c Z Y P D I O.o.0._ P ",
"6 t U ~ c X z ! c s c Q I M P ~ S Z 9 9 Z A Z c & % t D L c ~ ~ q y t g z 7 7 t z y 9 s 7 e V a t = 9 z c f < Z _ P M x x P ~ I ",
"D o.r.f.D = ] w.} } w.d.v.h.;.a.v.a.%.i.h.3.3.g.e - 0 x D v o.9.r ( o.w.r.~ :.U.c.c.+.' f e j.r.~ ~ o.c.C.0.0 A d.d.d.;.d.d.U.r.",
"v.N.P d.c = Z G r.;._ M M w.A.| v I ~ ( K v G w.z 1 f x v P c.~ = l x G ..9.o.W n M :.h.M # t m ;.0.I M x o.9 - x I } e.A.| ~ P ",
"Q I x d.c 3 y D G M c D M D I D A D D v Z A v e.y 6 l x c I c.P # - g x c D M c G c I d.( % q M M G c G D c.V X 9 c v P P M c v ",
"D M W A.z X 7 c A D c A K c c D M c M M M G J K.y 7 f c D c o.w.& # g A A S v D v D M d.( X q c v D c K $.( q $ f D A A c D D D ",
"D x ~ F.D   3 D v D D c D D D v C Z F A V V ] D.q = f D K x ~ ;.- - l D D A c D v A c ;.U # 7 s c D c M e.O.9 q 0 c D v v D v v ",
"D K q.C.Z X q f D x D K c v D D D M M G v G w.E - - c v c D o.m - t c M D D M M A c M ;.I - 7 x D A D M B N.c = f f D v D v v D "
};
