/* XPM */
static char *_6eb4937390d4f04a3cecb3f9bb8c831EuNj4t5kIL934Ej3[] = {
/* columns rows colors chars-per-pixel */
"64 64 249 2 ",
"   c #3C3C3C",
".  c #3A3837",
"X  c #433D3B",
"o  c #4A3E39",
"O  c #473C34",
"+  c #4A3C2F",
"@  c #3E413B",
"#  c #44423D",
"$  c #4C443C",
"%  c #4A463A",
"&  c #55463B",
"*  c #5A523B",
"=  c #664C3A",
"-  c #77583D",
";  c #715035",
":  c #3C3D42",
">  c #393D47",
",  c #423E43",
"<  c #463E4B",
"1  c #3D4244",
"2  c #39434A",
"3  c #3E4953",
"4  c #434343",
"5  c #4B4542",
"6  c #4C4A44",
"7  c #44444A",
"8  c #444A4D",
"9  c #4C4B4A",
"0  c #484747",
"q  c #534543",
"w  c #544B44",
"e  c #5C4D43",
"r  c #524C4A",
"t  c #5B4C49",
"y  c #53524D",
"u  c #5C544C",
"i  c #595347",
"p  c #494D52",
"a  c #554E52",
"s  c #535453",
"d  c #5B5553",
"f  c #5D5C59",
"g  c #585857",
"h  c #4D5450",
"j  c #634E43",
"k  c #645345",
"l  c #6C5545",
"z  c #65544B",
"x  c #6D5B4B",
"c  c #695A47",
"v  c #725643",
"b  c #745B45",
"n  c #7A5C44",
"m  c #735C4C",
"M  c #7B5D4A",
"N  c #795546",
"B  c #635B54",
"V  c #6B5D53",
"C  c #655A58",
"Z  c #745E53",
"A  c #7C634D",
"S  c #77624A",
"D  c #6B6154",
"F  c #6A645B",
"G  c #736353",
"H  c #7B6454",
"J  c #7D6A54",
"K  c #73655B",
"L  c #7C6B5C",
"P  c #77695B",
"I  c #756E58",
"U  c #5C6065",
"Y  c #6A6866",
"T  c #746C63",
"R  c #7B6D63",
"E  c #756C69",
"W  c #7C7264",
"Q  c #7C746C",
"!  c #777569",
"~  c #787775",
"^  c #6A7174",
"/  c #5C5C60",
"(  c #865A3A",
")  c #905E32",
"_  c #89623C",
"`  c #96663A",
"'  c #9F703C",
"]  c #A56630",
"[  c #825E45",
"{  c #915F45",
"}  c #846345",
"|  c #84644B",
" . c #8C6A4C",
".. c #8A6748",
"X. c #946A43",
"o. c #926C4C",
"O. c #976947",
"+. c #95724C",
"@. c #9C734C",
"#. c #9C7649",
"$. c #846652",
"%. c #846B54",
"&. c #8B6C54",
"*. c #836C5B",
"=. c #896E5A",
"-. c #8C615B",
";. c #926E53",
":. c #956D58",
">. c #8C7255",
",. c #85735B",
"<. c #8C735C",
"1. c #8B795D",
"2. c #947254",
"3. c #9C7452",
"4. c #93745B",
"5. c #947A5C",
"6. c #9B7B5C",
"7. c #9A7858",
"8. c #A2754D",
"9. c #A7774B",
"0. c #A37B54",
"q. c #A47C5A",
"w. c #A87A55",
"e. c #A67248",
"r. c #856C64",
"t. c #837363",
"y. c #8C7463",
"u. c #8D7A63",
"i. c #83756B",
"p. c #847B6C",
"a. c #8B7B6B",
"s. c #877867",
"d. c #937662",
"f. c #957B64",
"g. c #9B7C63",
"h. c #947D6B",
"j. c #9A7D69",
"k. c #92766C",
"l. c #857C73",
"z. c #8C7D72",
"x. c #847D79",
"c. c #937E71",
"v. c #A27E64",
"b. c #7E817A",
"n. c #9C815C",
"m. c #A5835D",
"M. c #AC835C",
"N. c #AB8559",
"B. c #B5875A",
"V. c #B5955C",
"C. c #8D836A",
"Z. c #9A8265",
"A. c #95826C",
"S. c #9C836B",
"D. c #99886A",
"F. c #8D8274",
"G. c #89847A",
"H. c #948473",
"J. c #9B8472",
"K. c #9D8B74",
"L. c #93857A",
"P. c #938A7C",
"I. c #9D8C7B",
"U. c #988877",
"Y. c #9C9278",
"T. c #A48364",
"R. c #AC8463",
"E. c #AC8A64",
"W. c #A2846B",
"Q. c #A48A6D",
"!. c #AC8C6B",
"~. c #A88667",
"^. c #B38C63",
"/. c #B38D6A",
"(. c #B88B65",
"). c #B8936A",
"_. c #A18672",
"`. c #A58B73",
"'. c #AB8D74",
"]. c #A38D7A",
"[. c #AC8E7B",
"{. c #A48676",
"}. c #B28E74",
"|. c #AC9174",
" X c #A5927C",
".X c #AC947C",
"XX c #A8977B",
"oX c #B39374",
"OX c #BC9A74",
"+X c #B3957B",
"@X c #B5997C",
"#X c #BA9B7C",
"$X c #B99676",
"%X c #BAA37D",
"&X c #C3986A",
"*X c #C39D78",
"=X c #C6A37A",
"-X c #D2A875",
";X c #757985",
":X c #7B8486",
">X c #7A8D94",
",X c #898885",
"<X c #9B8D83",
"1X c #948B86",
"2X c #9A9288",
"3X c #969797",
"4X c #8E9092",
"5X c #A58E83",
"6X c #A49384",
"7X c #AA9582",
"8X c #AE9A83",
"9X c #AD9B8B",
"0X c #A5998A",
"qX c #B39B84",
"wX c #BA9E84",
"eX c #B49D8B",
"rX c #B49684",
"tX c #AA9D94",
"yX c #BCA48B",
"uX c #B8A388",
"iX c #ABA294",
"pX c #BBA592",
"aX c #BCAA92",
"sX c #B7A797",
"dX c #BDB39A",
"fX c #B1ADA6",
"gX c #9EA4A0",
"hX c #C3A483",
"jX c #C2A68C",
"kX c #CCAC8B",
"lX c #C8A887",
"zX c #D1AD86",
"xX c #D4B289",
"cX c #C3AC93",
"vX c #C5AB95",
"bX c #C5B49B",
"nX c #CBB49C",
"mX c #C9B196",
"MX c #D5B898",
"NX c #D1AE90",
"BX c #CAB7A3",
"VX c #D4BDA7",
"CX c #C3ABA1",
"ZX c #E1BE88",
"AX c #D8C4AB",
"SX c #D8C6B1",
"DX c #E3CBB1",
"FX c #BEC4C4",
"GX c #98B2C3",
/* pixels */
"2 r 5 p 4 r 7 9 7 6 9 9 9 6 y 9 8 9 9 9 9 y a 8 7 9 9 7 6 $ 6 2 :   7   , , : X   ,   4 X   4 >   # 2 1 # 7 # 8 4 6 7 @ 6 4 # 8 ",
"d wXcXeXqXqX9X].U.8XaXeX7XuXaXJ.D.nXaXuXaXcXyXA.h.eXuXpX.X.XL : P.iXD K G.L.i.U.H.c.L.i.L.z.F V 0XU.. l.dXsXJ.iXpXpXsX9Xi.2X0Xu ",
"u yXoXuX#X~.f.f.$XlXxXzX=X=X*XT.5.uXuXeX8XXXqX4.T.zXzXOX)./.*..  XDXvX`.eX`.Z.MXzXOXoXj..X XS.wXBX_.o <XiX0X#X+X}.m.#X'.a.l.H.& ",
"s pXQ.uX@X!.u.L oXlX=XzXzX=XM.v.f.U.P.2X1XG.P.y.g.zX=X*X^.R.H : %.yX.XW.`.W.n jX-XB.+.4.j.f.g.!.1.*., x.iXY.T.R.3.#.o.2.H.,XT u ",
"y yXOXoX).E.Z.<.S.hX=X=XxX=XT.g.g.].C.L.2X1XL.4.j.hX^.N.B.q.x > y.S.f.yX[.4.%.'.B.w.;._._.J.W.g.%.A . x.0XK.0.R.N.B.O.+.<.i.T r ",
"u @X!.!.m.0.>.| S.OX).&X&X).m.2.&.Q.1.C.F.p.H.&.j.OX(.8.(.m.H   G 8X.XwX%.| f.5.B.o.&.{.h.y.*.= } v o <XuX6.B.(.^.&XM.N.@.n f.i ",
"y qXZ.A.g.Z.J x W.).B.B.w.N.3.2.%.f.<.a.! T A.<.g./.w.0.#.3.b : l K.Q.Q.rX<.<.5.kX+X%.<.`.S.A d.| ; X a.oXX.B.0.q.).6.9.e.O.f.w ",
"y .X<.H %.b x G &.!.0.@.@.0...&.m | [ G F K H %.5.2.3.7... .x > 7XeXf.`.v.d.[.W.f.f.4.wX5.4.$.H H c @ P.oX8.9.2.{.S.J...e.( %.s ",
"k j.%.6XU.h.f.*.S Z.`.f.4.W.Q.5. X8X7X[.`.I.XX4.1.S.f.=.d.4.c   8X}.r.d.T.m./.z.t.S.].J.=.%.N N M P .  X).+.0.T.5XH.P.5.w.O.| i ",
"8 iXqXXXXX`.'.K.h.K. X X]. XI.A.uXI.I..X`.F.A.Z.1.5.<.,.<.4.G 1 6X@XK.`.XXt.<.P.K._.%.4.*.L c.J ;.y.. XX).( 8.m._.K.u.7.X.; N r ",
"r pX=X'.7XJ.`..X#X}.W.Z.5.5.g.'.8Xa.K.|.D.a.t.4.D.Z.D.A.1.<.G   `.).).).`.t. XI.FXfXz.S.A.k.g.9.e.<.2 F.).@.e.:.m.V.o.X.` ( <.q ",
"u '.M.Z.F.p.<.n.R.W.A.C.1.<.4.g.@XA.D.T.1.a.t.<.>.5.A.C.,.>.H ,  XV.N.B.j.t.@XK.GX>XE U.u.g.N.] ) %.: 2XuX..` { X.w.O._ _ S A.e ",
"s uXn.|.F.u.~.#.~.W.5.,.5.6.6.g.oXf.Z.~.n.,.*. .g.Q.A.s.,.>.H   0X~.&.%.A.W A z.~ F J G G d.A o.[ %.. P.tXi.X.' o.0.{ o.- D T 6 ",
"a `.(.M.T.g. .&.n.n.6.q.w.8.o. .~.Z.Z.~.Q.y.1...2.Z.s.W %. .H : 2XQ.M d.f.,.W.s.P J A h.t.y.J Z *.H O i.2X,X&.` X.` ( ( A Q T q ",
"y D.N.#.m.5.S T 1.u.t.<.2. .A ,.6.<.<.%.<.G *.} | u.i.W %.} G : t.g.d.| T.W.o.u.a.h.P h.[.Q.; & v m , l.<X~ y.y. ._ &.v m K D q ",
"q J.....3.@.2.<.v.g.J S | } [ %.5.1.u.A *.D G A %.,.I T A } H 1 i.`.A.`.eX=.S D >.k.D A 2.'.:.J M c # w e 9 $ & 5 # 0 7 : > # 7 ",
"w S.o.X.8.` O.<.4.2.- I x b n J <.J 2.S G M H n } J A S S | - 4 T !.2.h.`.- M &.Z.<.M m A A *.c -.S . s.#X0XeXH.z.tXJ.S.].Q.<.a ",
"8 *...[ H [ | J | %.b S = = b M L B k D B k u G n m n - b - J > i.v.&.y.A &.v 4.V.O.[ n <.; n = M c   Q.ZXhX&XN.wXAX=X=XOXOXT.% ",
"% x %.n v G c ; ; J H n | *.*.- b H $.l G %.H = b *.n | A A k 2 _.3.o.%.v A l y.' ) ;.v H H ; [ %.l , S.-X6.3.7.J. Xn.OX!.0.5.r ",
"5 7 > , X 7 4 5 1 2 2 7 4 , : 4 4 9 4 9 4 4 7 7   . .   1 @   > =.W.'.f.M $.v d.8.o.g.*.m m b d.'.H < S.-X~.v.f.k.].v./.7.3.2.5 ",
"i A.H.:X,XK.A.~ 1X1Xl.T P j.f.a.s.a.W R a.a.R r 8 T ! Y U F V F K d T + x b = f.f.d.y.j m k + P G z , u.V.M.R.X.f..XE.m.3.0.+.w ",
"s {._.2X4XL.L.3X3XG.t.T *.W.2.1.W.Q.K.4.v.&.<.& B AXMXMXkXzXlXNX9X# 4 5   4 X 4 # # # $ X . 7 > . o 1 g c = l * & i & k e = * 8 ",
"s ,XQ Q :X>X:X:X;X:X,X! L j.4.5.m.m.f./.^.g.&.$ F VXkX X'.S.eX#XW.$ $ & 6 1 9 p 6 # 9 7 y f s f d e d > g C C f C Y C B f z C 3 ",
"s 1XL.F.H.P.G.:X~ ^ ,XL %.f.v.*X/.+.A T.M.A n # D MX.XP.P.a.t.'.`.X Q 8X6XpXwXwXpX0X6Xe 6XcXE.E.h.7.Z.e I.VXNX%XcXcXqX8XeX+X'.i ",
"y i.v..XD.Z.h.b.x.Q W F K z.4.7.5.} 6.0.} &.- 6 g =X@XQ.hXZ.5.'.4.%  XhX=X^.!.!.(.|.%Xd ].E.^.R.v.*.A & 1XMXB.M.^.B.M./.N.+.S.r ",
"r I 5.<.,.a.L s.W t.P G R y.W.m.A 2.:.;.4.&.- 5 y  Xa. X|.`.1.t.| # K.kXE.^.E.T.E.oX|.r Q.~.5.E.m.f.$.o 1XnX^.N.^.&X(.).^.@.4.r ",
"p G.~ ~ Q Y ^ E ^ Y T B Y i.t.1.%.$.M ;.<.| ..r B .XF.Y.oXQ.S.R <.w  X#X=X=Xm.$X=X*X}.r Q.'.s.E.+XI.=.o 1XcX/.^.B.).^.m.N.0.f.q ",
"y C.~ ;X~ ! ^ ^ ^ Y ~ B C E K p.G *.L A S b } $ B hXQ.5.*X6.2.<.<.5 ].!.$X^.!./.@XR.R.r `.`.U.D.L.L.*.+ U.xX^.(.OXB.M.E.M.N.Z.i ",
"a +.%.;X~ ~ ^ ^ Y Y L l m G P t.T B F V F D x p F *XoXT.!.u.2.5.W.# ].T.T.).T.!.6.2.w.i 6X'.`.a.<Xs.= + H.=X^.-Xm.8.w.q.N.8.4.q ",
"z _ - E F c B Y Y T K l x P G R *.$.y.$.H %.[ o g kX!.$.u.K A |.`.# ].kX#X).!.6.+X|.8.e <X`.f.s.T.!.- o a.#XQ.3.@.M.^.3.0.@.<.w ",
"  $ q X @ % X 7   6 X O o $ O $ $ w 5 $ 5 $ & > g NX+X%.%.G f.wXS.# `.oXoXq.6.'.#X$X_ $ H.H.u.g.&X&X3.u a.#XQ.9.R.^.M.3.3._ A r ",
"f fXdXcXdX2XsX7XfXBXL.tXCXsXtXi.iX7X<XCXfXdXaXg u kX#X|.7.g.#X@XW.# A.!.'./.oX6.6.m.( r S.s.Q q.q.@.q.k 1.OX6.w.q.8.3.o.+._ ,.9 ",
"C DXuXcXmXaXVXnXnXDXsXSXAXAXmXaXVXbXbXSXAXVXAXB q t.y.y.L 1.J *.A O a.d.l Z m l v v k & Q L x H [ ( | j J `.d.f.h.A.t.t.*.y.L & ",
"B 8X4.pXnX8XvXaX8XpX6XVXyXcXcXsXBXmXqXBXBXjXmXd 2 4 . . . . # . . 3 1 #   . X 4 X . 7   1 1 4 . o + $ 7 1 4   1 #   4 4 4 4 4 8 ",
"d nXmXVXbXeXBXaXBXBX].cXg.W.nXCXVXBXuXBXBXpXmXf K a.,.J.c.t.,.s.s.# G.eX7X7X X8X9XiX9X8X8XqX8X`.<X6XL.8 p F f f d y 9 r y y s 8 ",
"B SXAXVXAXvXBXvXAXSXyXwX7.2..XVXAXnXBXSXBXBXMXf *.Z.5.:.'.>.6.4.$.& eX$XuXjX$X!.Q.oXT././.~.~.hXhX$Xj.O F.pXpX9X9X6XL.<XL.H.<Xw ",
"f bXBXBXBXuXBXAXaXvXqX6.0.3.>.vXVXbXaXbXaXnXnXg L 5.6.6.g. .g.&.H $ 9XoXjXnXMXwXE.^.R.^.R.OXhXMXhX/.<.o Q H.5XH.a.<Xi.G.L.R Q 5 ",
"B bXnXvXaXyXSXVXnXbXaX|.+...|.nXvXaX7XuXsXqXyXd H 5.o.R.R.m.+.} v + eX=XhXlXhXMX).M.&Xw.q.xXhXlXjXoXt.X ~ tX2XP.0X2X2X0XP.l.L.u ",
"d yXjXvXaXuXVXnXVXVXpXaX6.2.yXuXcXvXpXVXVXvXjXB G f.7.;.2.....&.m w 0XoX#XNXkX#X#XjX.XyXjX@XjXhXoXR.<.o ~ sXL.0XaX6X0X2XL.L.z.r ",
"f aXwXyXaXqXmXnXcXBXsXaXqXwX+XeXjXqXyXnXvXjXjXd Z >.7.o.;.+.7.;.v O pX$X/.oX$X$XeXeXpXeXvXjXoX!.).M.<.X ! iX6XL.tXP.2X1XF.l.Q r ",
"0 I._.k.s.I.J.6XrXJ.y.H.h.9X7X7X].<XXX'.J.eX X% m g. .X.m.7.}  .A $ 0X=X=X=XM.hXK.8XaX8XuXoX).=X)./.=.O R J.].F.H.<Xz.z.H.i.W $ ",
"f dXyX].BXSXvXaXaX8XbXuX.XyX+X+X{.sXBXjX5XvXCXg A >.o.@.M.0.3.( M $ I.!.E.*X).6.Q.`.+X'.!.q.).B.0.~.*.$ T a.J.i.l.L.p.l.a.L T 6 ",
"f aXnXaXBXVXnXaXI.BXBXyX.X.X'.`.6.].uX!.5.Q.cXd m g.q.3.}  .T.6.l o 9X!.kXq.q.#X+X+XwX`.+XhXq.m.OXT.y.$ Q 2XH.G.2X1Xi.G.F.i.l.r ",
"B bXcXeXaXcXjXyX[.BXaXvXqX7XA.8X'.7XrXT.>.<.qXa c =.4. .T.>.g.n v w 6X!.oXhXxXoX'.yX.X.XuX|.kXwX!.o.<.q ~ 0XF.2X0XG.W l.l.s.F.r ",
"z yXyXwXuX#X#XuXXXuXuXwX'..X`.j.h.6XeX'.|.|.wXz b %.} &.6.$.M n v $ 7XT.$XkX=XhX|.#X!.oX~.oXhXNX/.7.&.& T <Xa.i.L.l.W p.t.R i.w ",
"z aXpXU.9XwXwX9XpXyX8XyX`.].J.U.f.<X8X'.XXXX`.e v n } - | - n ; k $ K./.$XlXOXoXw.@.0.@.0.^.OX=X+Xq.2.& V i.L i.t.W R R P G K $ ",
"6 u e u u k x B C V k z k V & k j e l = y d B 0 c Z G b j c x k e # 8X7.!.oX$XT.q./.q.3.@.R.6.OX'... .e F i.K T K F F D V V B r ",
"s ,X,X~ ~ P.Q ^ ~ ^ f P.bXeXcXqX7X6X|.%.X . X 4 4 X # X 4 4 X 0 o , a.q.6.g.7.:.4.g.g.g.:.g.<.=.=. .| & 5 $ $ O $ O o O o $ # 4 ",
"B tXfXgX3X7XJ.1X2X1XC yX=X6.B.&X).O.^.9.c c.V 5 1 7 0 4 9 9 7 9 6 9 6 9 9 9 9 9 s & r p s 9 h w 9 6 % 9 w h g k g d d f d s s 9 ",
"y K.3XtX1XH.t.p.,.T g |.^.6.R.R.w.M.@.` m VXiX6X<XI.I.J.6Xi.H.sXI.].U.9XU.5X9XeX0XT a.wX@X|.|.8X7X9XaXH.z.AXaXtX7XwXrX8X].eX9Xk ",
"g 0XW.1X1XW.4X,.A G.U !.e./.q.0.M.(.@.` c qXyXyXwX#XlXhX|.%.`.wX`.`.'.jXj.`.W.`.'.I s.hXM.Z.t.p.k.D./.y.G.CXU.,X%.$.| 1.u.c.6Xu ",
"f I.6XK.G.u.E ~ K E U T.&XB.B.@.w.M.^.X.x wXMXMXMXMXMXMXS.A 7XjXrX_.`.rXf..Xj.j.[.%.R rXE.<X;Xt.1XD.B.L ~ 2X4Xh.4.y.|  .f.H i.6 ",
"z ].gX2XG.a.t.,X,Xr.& W.0.m.9.X.8.w.o._ c wXkXMXmXMXMXmXS.c h.7Xh.A.J.J.*.A.f.h.{.%.H rXg.z.L.(.x.F.B.M i.Y.^ @.| p.a...n c W g ",
"x uX3X4XG.h.x.I Q u.S +X/.E.B.3.0.m.3._ e yXMXMXhXhXNXlXQ.%.qXyXj.+XqXqXf.S..X.X|.P n Q.Q ! S.N.J.^ u.H l..Xt.4.&.~ i.3.$.t.Q a ",
"d Z.4X1XF.H.L ! G H c `.(.7.8.q.M.@./.@.l yXvXMX#XoXkXlXg.A `.S.S.f.f.j.&.W.`.S.Z.P n D.Y Q n.Z.t.~ W V l.uX5.<.2.x.,.` ( %.&.& ",
"s 1X|.<.W 6.T Q H D 9 +X9.B.' X.) 8.O.) l qXvXhXwX+X#XjXS.J ].pX Xu.]. Xf.qX`.A. Xr.k u.r.v.#.w.r.#.d.G ,.rX#.0.*.;XR _ ;.H $.y ",
"d H.,XQ i.5.} F E ^ u Q.^.M.q.^.@.0.0.; e 9XjX+XQ.Q.!.uXf.b f.S.h.h.u.u.<.h.h.A.a.M ; *.Y E %.3.R T D V t.jXs.r.;.I I  .[ m i.q ",
"u l.1Xa.R L P G K F & W.M.8.0.M.X.8.0.` = [.hXlX'.}.hXhXj.A [.eXS.W.f.j.f.S..X'.A.S b t.F W 6.' s.Y P x r.aXt.&.N P t.- | L T h ",
"s a.h.! ~ L P T z V o j.q.O.8.N.8.@.X.` k .X=XzX#X}.lXlXj.l k.[.f.d.=.'.<.S.S.S.j.Z c <.%.H f.8.R D %.l r.yX>.X.S T P | [ N r.9 ",
"f ,Xs.T ~ ,.T T F f 6 _.o.X.q.O.w.O.o.( k `.wXkX%X$XhXkXf.b u. X].J.J.qXh.7Xh.].{.Z = ..3.P Y K Y A X.c T |.&.M %.H $.} | - v y ",
"u :Xx.Q F n F F Y Y 6 f.q.@.0.8.w.X.o.; j [.'.+X#XhXhX#X%.v h.`.d.d.f.$.%.j.f.h.=.B k } _ G f F U H X.u Y H.W C A v N [ n ; ; 6 ",
"g x.x.~ Y - b Y Y f 6 5.^.M.R.R.3.3.6.( j S.d.Q.'.[.`.j.*.l y.d.<.j.<.%.<.f.j.f.$.e z %.| <.L %.%.%.:.x R I.p.*.G V m J l n &.q ",
"9 f g y d u 5 w w 9 X e A m k G m c l = 6 K k z z j k k B r V V k V k G x x z z z o t V e e j v b z c e z G B l z B z q 6 z * 8 ",
"3 + 4 # > 1 o 1 # : 8 , . : 1     : 4 O 2 1   4 : 4     1 1     4   4 :     1 : 2 @ #   1 1 1 > : 2   2 7 . 2 > # 1 : 7 2 # $ < "
};
