/* XPM */
static char *f269df55b5f1400089fe112d54aca6f8up416gnlkPlZphNA[] = {
/* columns rows colors chars-per-pixel */
"64 64 256 2 ",
"   c #090506",
".  c #171617",
"X  c #0F0E0F",
"o  c #392B19",
"O  c #30230F",
"+  c #191A22",
"@  c #1D272D",
"#  c #262829",
"$  c #262936",
"%  c #2C3A3B",
"&  c #273538",
"*  c #333C3B",
"=  c #383837",
"-  c #352D2C",
";  c #2E1E1B",
":  c #49341D",
">  c #4F311B",
",  c #493926",
"<  c #593B27",
"1  c #583C36",
"2  c #48322D",
"3  c #653F29",
"4  c #38453D",
"5  c #5C432B",
"6  c #594637",
"7  c #494836",
"8  c #66462C",
"9  c #6B4D3A",
"0  c #664936",
"q  c #6A533D",
"w  c #76553C",
"e  c #744A36",
"r  c #2C3D42",
"t  c #343E42",
"y  c #2C2E53",
"u  c #2A3264",
"i  c #1C2654",
"p  c #4B3C45",
"a  c #473C57",
"s  c #344444",
"d  c #38474B",
"f  c #384C52",
"g  c #364A50",
"h  c #3E6562",
"j  c #494948",
"k  c #594B49",
"l  c #575349",
"z  c #464B54",
"x  c #47555A",
"c  c #595756",
"v  c #4E524A",
"b  c #6C4E41",
"n  c #634A43",
"m  c #695647",
"M  c #7C5B44",
"N  c #7B5D4A",
"B  c #765646",
"V  c #6A5A58",
"C  c #755B56",
"Z  c #704D49",
"A  c #7D644A",
"S  c #686559",
"D  c #786658",
"F  c #6A684F",
"G  c #4F586A",
"H  c #6A5D64",
"J  c #4A6567",
"K  c #566667",
"L  c #567778",
"P  c #517072",
"I  c #696766",
"U  c #776966",
"Y  c #6A716C",
"T  c #7A7365",
"R  c #786C76",
"E  c #687675",
"W  c #787777",
"Q  c #66697A",
"!  c #566453",
"~  c #84583D",
"^  c #84603E",
"/  c #865A47",
"(  c #895B56",
")  c #83644C",
"_  c #8A644D",
"`  c #886447",
"'  c #93694C",
"]  c #8C6A55",
"[  c #8B6C5B",
"{  c #866656",
"}  c #936C54",
"|  c #976B58",
" . c #8A745C",
".. c #977459",
"X. c #A3795C",
"o. c #A36C5E",
"O. c #866C68",
"+. c #956B64",
"@. c #877568",
"#. c #947464",
"$. c #9C7B64",
"%. c #987869",
"&. c #887979",
"*. c #967B77",
"=. c #896F78",
"-. c #A67B66",
";. c #A57B74",
":. c #B2756C",
">. c #76837A",
",. c #58837A",
"<. c #97846D",
"1. c #888479",
"2. c #9C8E7A",
"3. c #998676",
"4. c #9D917C",
"5. c #959578",
"6. c #8B846B",
"7. c #A4836E",
"8. c #AA876A",
"9. c #A48373",
"0. c #A98979",
"q. c #B78A78",
"w. c #A2957C",
"e. c #A89679",
"r. c #B79579",
"t. c #B3886C",
"y. c #B7A17F",
"u. c #C4967A",
"i. c #C28377",
"p. c #C9A37F",
"a. c #757884",
"s. c #5A7B80",
"d. c #8F7B85",
"f. c #847EBA",
"g. c #658887",
"h. c #728E90",
"j. c #71979D",
"k. c #878688",
"l. c #998785",
"z. c #9D9382",
"x. c #9A978B",
"c. c #88999C",
"v. c #999796",
"b. c #918C96",
"n. c #A68A86",
"m. c #B68A85",
"M. c #A39683",
"N. c #A39985",
"B. c #AB9C83",
"V. c #A49C8A",
"C. c #AA9789",
"Z. c #B79687",
"A. c #A89895",
"S. c #B79896",
"D. c #A98F90",
"F. c #93A097",
"G. c #ABA086",
"H. c #AAA38C",
"J. c #B3A385",
"K. c #B3A98E",
"L. c #BAA88A",
"P. c #ACA493",
"I. c #AAA799",
"U. c #B4AC93",
"Y. c #B4AD9C",
"T. c #B7A797",
"R. c #BCB295",
"E. c #BDB59A",
"W. c #B6B398",
"Q. c #B3B093",
"!. c #9B98A4",
"~. c #878CAE",
"^. c #AD9CA7",
"/. c #8BAAAF",
"(. c #A9A6A6",
"). c #B7A8A7",
"_. c #B9B5A7",
"`. c #B9B9B4",
"'. c #AFAEB3",
"]. c #C79A86",
"[. c #D39C8B",
"{. c #C69995",
"}. c #CE9597",
"|. c #C6A789",
" X c #D4A58D",
".X c #C7A798",
"XX c #D6A895",
"oX c #C3B494",
"OX c #CAB596",
"+X c #C3B59A",
"@X c #CBB69A",
"#X c #C3BA9D",
"$X c #CCBB9C",
"%X c #C7BA97",
"&X c #D3BC9D",
"*X c #D8B59B",
"=X c #C2BE8F",
"-X c #E2B09A",
";X c #C5AAA6",
":X c #D3A8A6",
">X c #C4BBA3",
",X c #CCBDA2",
"<X c #C2BCAB",
"1X c #CAB7A8",
"2X c #D7B8A8",
"3X c #CAB6B6",
"4X c #D7BBB7",
"5X c #C4ACB1",
"6X c #E5B9A7",
"7X c #E3B5B3",
"8X c #B8C2BC",
"9X c #BFC1A8",
"0X c #D4CE99",
"qX c #CCC3A4",
"wX c #C9C4A9",
"eX c #D3C3A4",
"rX c #D3C5AB",
"tX c #D7C9AB",
"yX c #DAD9A6",
"uX c #CAC6B7",
"iX c #D7C9B7",
"pX c #D5D1B9",
"aX c #CAD2B7",
"sX c #E7C7B6",
"dX c #EED2B7",
"fX c #EEEAAC",
"gX c #E8EAA1",
"hX c #AB9DCA",
"jX c #A7AAD2",
"kX c #CBBCC8",
"lX c #D8BFD2",
"zX c #B6C6D0",
"xX c #BDCCE3",
"cX c #C7C9C4",
"vX c #D7C8C5",
"bX c #D7D6C6",
"nX c #CBD7D6",
"mX c #D7D9D5",
"MX c #D1CBD1",
"NX c #E6CBC6",
"BX c #E9D3CA",
"VX c #EAD8D7",
"CX c #F7D3CB",
"ZX c #DBE4DB",
"AX c #E6E5DB",
"SX c #F4EBD1",
"DX c #CCD0EB",
"FX c #E7DEF1",
"GX c #DBE9E6",
"HX c #DCE4F9",
"JX c #E6E9E6",
"KX c #EAF2EC",
"LX c #F4ECF9",
"PX c #E8F5F5",
"IX c #F8FCF8",
"UX c #EEECF6",
/* pixels */
"N.N.N.N.N.N.N.z.4.4.4.4.z.z.z.z.4.4.4.4.4.w.M.N.N.N.B.B.B.B.J.J.J.J.L.L.L.R.R.R.oXoXoXoXoXoXoXoXOXOX@X@X@X+X+X+X+X#XrXqX,X,X,X>X",
"N.N.N.N.N.N.z.z.z.z.z.z.z.4.4.4.4.2.4.4.4.4.w.w.w.w.B.B.B.B.J.J.J.J.L.L.R.oXoXoXoXoX%X%X%X%XOXOXOX@X@X@X@X@X@X#X,Xw.D D 2.+X,X+X",
"V.V.N.N.N.N.z.z.z.z.z.z.z.4.4.4.2.2.2.4.4.4.w.w.w.w.w.e.B.B.B.J.J.J.L.L.R.oXoX%X%X%X%XOXOXOX@X@X@X@X@X$X$X$X,X,X3.m @.<.m <.iX1X",
"P.H.V.V.N.N.N.N.M.z.z.z.4.4.2.2.2.2.2.4.4.4.4.2.w.w.w.w.w.B.B.B.J.J.L.L.|.oX%XOXOXOXOX$X@X$X$X$X&X&X&X$X$X,X2XeXB.m  .<.m <.iX>X",
"I.P.H.V.V.V.N.N.N.N.M.M.4.4.4.4.2.2.4.4.4.4.4.4.2.4.w.w.w.B.B.B.J.J.L.L.|.oXOXOXOXOX@X@X$X$X$X&X&X&X&X&X,XeXeXrXtXV.6.3.H.1XrX>X",
"I.P.P.H.H.V.V.N.N.N.V.N.M.z.z.4.4.4.4.4.4.4.4.4.w.w.w.w.w.B.B.B.J.J.L.L.oXoXOX$XOXOX$X$X$X$X&X&X&X&X&X&XeXeXeXrXrXrXiXiXiXiX1X>X",
"I.I.I.I.I.P.P.H.V.V.V.V.V.V.N.N.M.M.w.4.4.4.w.w.w.w.w.e.B.B.B.G.J.J.L.|.oXOX%X%X$X$X$X$X$X,XqXeXeXeXeXeXeXrXrXrXrXqXiXrX>X<X<XU.",
"Y.Y.Y.Y.Y.Y.I.P.P.H.H.H.V.V.V.V.V.N.w.w.w.w.w.w.e.e.B.B.B.B.G.J.L.L.L.oX%XOX%X%X$X$X$X,XqXqXqXeXeXeXeXrXrXrXrXrX>XrX>XT.<X<XY.P.",
"_._._.).Y.Y.Y.Y.P.I.P.P.K.K.K.H.G.G.G.G.G.G.G.G.G.G.G.G.B.B.J.R.L.oXoX%X%X%XqXeX$X$X$X,XrXtXrX$XtXtXrXeXrXqX,X#X+X>X>X_.P.1.T D ",
"_._._._._.Y.Y.Y.Y.Y.U.U.U.U.U.U.K.K.K.K.K.K.K.K.K.K.K.U.U.U.R.+X%X%X%XJ.2.<.e.L.tXtXtXtXqXqXqXtXqX$X$X$X$X,X#X+XE.T.N.@.D T 1.z.",
"`.`.<X<X<X<X<X_._._.E.E.Y.U.U.U.U.U.U.U.K.K.U.U.U.K.U.W.+X+X+X%XeXL.y. .A A q A e.r.oXtXtXqX>XwX$X$X+X+X+XE.R.T.,XV.T V @.P._.I.",
"<XuXuXuXuXuXwX<X<X<X>XE.E.W.W.W.W.W.W.U.U.U.U.U.R.R.W.R.R.+X+X%XeXJ.7.A M w 5 0 8 8 A J.rXrX#XR.E.oXR.R.R.T.T.T.N.2.3.2.I.<X).x.",
"uXuXuXuXuXuX<X<X<X<X>X>X>X#X>X#XE.E.E.E.E.W.W.W.W.E.+X+X+X+X#X$XJ.e...w w w 8 M 8 > < { J.@X+XR.K.U.U.U.T.K.K.S.P.C.N.A.I.Y.I.x.",
"vXvXvXvXvXpXpXpXuXuXuXwXwXwX>X>X#X#X#XE.E.E.E.R.R.E.+X+X+X#X#X$Xr.8.` w ' | } ..| / 9 M $.L.oXR.K.U.K.H.C.C.C.C.P.N.l.z.x.x.V.I.",
"uXuXuXuXuXpXpXpXpXpXpXpXrXwXwXwXwXwX>X>X>X#X#X#X+X+X+X+X#X$X+XL.OX|.` ' u.].].r.q.8.| _ $.Z.L.B.P.H.V.N.M.C.A.S.A._.uXuX<X_.<XuX",
"`.`._._._._._._.wXuXuXpXpXpXpXpXaXuXuXwXwXwXwXqXwXqX#X>XqXqXR.r.|.XX| -. X XXX].[.].8.} $.Z.|.e.4.z.z.z.N.P._.1XiX3X(.v.(.cXcX`.",
"`.`._.(._.(.V.V.I.I.I.9XI.Y._._.5.1.x.U._.wXpXwXuXwXaXpXW.rX@X0.Z.Z.| ].6X-XXX[.[.XX].q.| tX.Xe.3.5.1.z.z.P.pX>XU R !.xXHXIXPXnX",
"'.'.(.(.(.I.v.F.x.Y.V.1.6.T F m l 7 7 l F <.T.wX_.W.W.9XqXrXB.#.%.{ $.].r. X6XXX-X].r.0.) ,XSX@.F F S S T ).E.S &.kXLXFXDXxXzXxX",
"cXcX8X`.'.(.I.I.I.x.&.m m , 2 n 6 , : o : , m @.U.W.Q.Q.>XE. .D , O o O O 5 ) 7. . .A m q T SXW.S l v j c k.k.V ^.hXhXhXf.jXDXzX",
"nXnXnXmXnXnXbXvX`.@.T m 0 b [ %.N b < < < > : 6 @.5.H.G.H.w.m 6 o o o O o O : , : A 0 : 7 7 aXAXI.c v z j I W k.b.kXjX~.~.~.hXxX",
"8X`.8X8X`.`.uX_.A.&.@.C +.m..Xm.;.| B B / 9 < 5 6 m 6.4.V.K.6., 6 o O o o , %.<., 0 m 6 , 6.SXSXaXS v j j Y W 1.v.^.hXhXhXxXHXDX",
"GXnXnXcX8XcXcX<Xz.2.[ %..X6X6XXX].t.| | | / e 0 0 6 m D 3.E.>Xm D O.C { { B q.].} e %.0.A rXSXSXbXS v v j Y >.1.k.FXLXUXIXIXUXnX",
"PXGXGXGXZXKXKXmX).C.D Z.sX6X6X6X].q.t.q.t.-.} M q q , 5 m @.rX%.Z n.+.+.;.:.:.[.[.:.XX2X..sXdXSXbXF 7 v 4 ! >.k.v.JXLXFXUXIXIXnX",
"PXGXGXGXGXJXJXuXuXT.@.2XsX6XdX X X].].].q.8.-.] 0 A 0 6 6 m iXT.B +.+.( ( :.:.i.i.o.[.].e 6XCXSXbXS 7 v 4 K k.h.!.UXLXLXIXJXJXnX",
"IXPXKXKXJXGXMX_.uXT.M.1X2XsX2XXX.XXXXXZ.8.8.8.$.) M M 9 0 A 1XBX{ b #.| e q.[.[.| q.u.` |.dXdXSXbXY 4 v d Y h.k.'.ZXFXMX'.(.'.cX",
"PXGXKXPXPXJXmX`._.z.2.T.4XT.Z.@X2XZ.8...` A $.r...$.] B q N tXBX<.: 0 ] w / | ]. X].|.r.sXdXdXSXAXY j j z a.Q b.!.MXmXvXuXcXcXMX",
"KXGXGXGXZXmXcX`._._.<X3.@.D #..XZ.$.] ) 8 > A r.` 8.$._ ] { sXdXB.: 5 A ) ] X.]. XX.X.|.dXdXdXSX<Xl 7 4 * W a.!.a.`.BXpXtXrXpXpX",
"KXJXJXPXKXAXcX_.I.T T T D 0 B n.@X#.q w 0 5 A 8.8 ..t.} $.$.2XsXB.6 0 q ) ..8.8.X.` ..*XdXdXdXSXrXT l S v W k.c I Y.SXyXyX0XyXwX",
"KXJXAXJXJXAXbX_.P.m C 3.{ D %.:X2X;.B 0 < 8 ..].e } u.} ..8.|.eX+XN q q _ | X.} / } q.*X|.tXsXeX2X1X>X>X1.I Y c S G.fXfXfXfXfXyX",
"IXKXJXAXAXJXmX3XT.&.@.n.{ ( 0.2X{.;.+./ M } r. X~ ' |.8.7.r.e.L.R.[ N M _ -.-.| / -.r.Z.$.Z.tX1X4X:XT.>XpX_.V c m 5.yXfXgXgXfXyX",
"IXIXIXIXIXIXAX3X3Xn.%.2X4X0.m.7X}.m.-.;.].*XXXu.~ ' u.u.8.|.e.e.<.D B B N 7.;.} | -.7.9.[ 0.2X1X:X:X;X1XvXvXW j l 6.0XgX0XgXyX0X",
"KXKXmX`.'.cXbXuXT.;Xn.S.7Xm.}.7X}.}.].;.-.q.].u.X.X.u.u.8.|.y.y.<.D B { A $...] | |  .9.%.%.C.n.4X4X3XvX3XBXkXp c T J.yXyXgX0X=X",
"(.v.v.k.k.(.uX_.).T.n.+.:X:X( :XNX7X:X%.B XXr.r.} -.8.p.|.r.r.y.$.B { ) { ..M ) { 9.0.Z..X.XS.D.5XkX4XBX4XiXVXT 7 W x.uXbXpXtXqX",
"(.(.(.v.k.v.A.A.T.T.D.O.Z.:X;.].:XZ.m.+.+.{.Z.-.| 8.X.r.|.|.r.r.$.M ) )  .#.M B [ 0.0.Z.S.S.;X4XvXVXvXNX4X1XNX).l c v.8XcXbXpX,X",
"A.A.A.v.l.&.&.&.A.A.n.O.%.S.S.Z.S.{.{.;.q.m.Z._ ..t...8.|.|.t.-.].7.] ] [ ] ] [ %.0.9.n.T.;X;X).5XvXNXBXsX;X4XVXI j v.MXuXcXbXaX",
"D.D.n.n.n.*.O.T 3.3.@.O.D %.S.;Xm.;X2X0.Z.Z.8.3 -.r.....0.|.8...7.9.#.$.#./ +.;.m..XC.*.n.S.3X3X).5X3X4XNX4X3XBX`.c W nXIXIXIXAX",
"S.{.S.D.D.n.@.C D O.D D C m *..Xn.m.Z.;.Z.{.N O <.r.] ) ..0.8.$.%.0.;.9.#.B +.m.Z.S.%.O.D.).).).3X).).;X4XBXNX4XVXv.k.cXIXIXIXZX",
"].{.{.m.m.C.%.m 6 D D C m k D 3.Z.9.0.m.0.9.< > $.7.) A ) $.7.$.*.n.%.;.*.{ ;.S.S.;XS.A.A.1.k.(.).).5X;X;X4XNXNXvXVXmXIXIXKXIXKX",
"].].{.m.;.9.3.D n n m V m n m D 3.9.9.Z.<.B < 9 #. .M ) A  .#.{ m O.%.n.S.;.;.S.3X).&.I Y K Y E W k.v.T.T.;X4XNX3X4XMXAXJXKXKXmX",
" X[. Xq.| #.9.%.D 6 n C m m m m b ] ) #.[ < 5 B %.) B [ A { { m @.3.D.S.S.*.*.;X3X3Xb.I E h.h.,.E Y c &.T.).;X3XVX3XvXvX'.`.cXcX",
"[. X Xr._ $.9.[ B 1 b b m b N B [ 7.9.<.#.B q m { { 5 B #.A 0 @.k U T.).).A.=.).`.kX!.K L L ,.g.h.h.>.I 1.(.A.S.3X4XNXVXA.I v.k.",
" X XXX|...%.%.N 6 6 b b b b B M M q.$.7.0.B q D 0  .5 b A N { 0 6 l A.).).).&.v.3X`.c.J L L L ,.L h.c.c.Y W ).A.S.5X4XNXvXl.U R ",
"XXXX*XOX$.#.{ 9 < b Z B b B B / ) $.$.0.N < N 5 0 N 0 B N 0 ) 0 6 7 k.).`.).k.k.'.`.c.J P L L P g.g.g.c.g.K &.l.l.D.S.4XVX).V U ",
"*X*X2X2X7.[ B 0 6 Z 9 M w _ _ / _ 8.-.#.N 8 9 0 0 9 A B A 9 9 N 6 = U (.3X).k.k.b.'.c.J J P L J L L g.j.c.E v x.l.0.n.T.4X4X=.R ",
"-X6X6X2X9.[ B B b 0 8 M w | -./ _ -.-.] M B 9 9 0 A [ 9 ] / e N 6 - j W '.).k.v.b.b.a.x J J J J h P g.g./.h.x S @.*.0.n.S.;XU H ",
"6X6XsXsX0.[ B B b 5 > q M } -._ | _ -.} 8 9 0 < ]  .8 8 ] w / ..D k - 2 &.b.d.!.b.Q G x K x x J P J J g.j.c.c.Y S @.0.0.;XA.k c ",
"6XsXsXsXZ.#.b 0 b 0 > 9 ..` } } ..-.| / / 3 > B  .N > 8 _ / _ 0.n.*.V 2 p H R a.a.G z z K x x J J J L j.j.c.zX8Xk.@.<.C._.1.k H ",
"*X6XsXsX{.%.0 : b N < w 8.w ~ ..| ' ~ / w > 8 [ 0 < 9 w / -.| 9.C.;X).H - = z z z z x f x z x x J P g.L h./.c.c.`.l c 1.&.j j v ",
"6X6X6XsXn.C n 1 B M ` ~ ..^ ` } ' ' ~ ~ e 8 ] ) 8 ) B w -._ | -.Z.:X:XT.2 - t t f f f f f x x x J L L g.h.j././.c.c.g.!.v.1.I j ",
"-X6X2X2XO.C O.0.{ _ / ..' ..` ..' ` ~ / 8 / M w w ] ] / w / o.q.{.:X2X3Xk - * r s g g f f z x x J P L L g.j./././.jX'.GXKXJXVXcX",
"*XsXsX2XO.*.n.*.+.] | t.` ..` 8.' ~ / / 3 | 8 0 ) ` M w 3 ' -.q.XX2X4XNXU # & r r r s g f f f z x J P L s.h.j././././.nXJXAXAXvX",
"2X2X4X;XD.S.5X9.#.] 8.q.' ' } q.' ~ / / e | e / ) 8 8 e e X.8.].2X2XiXBX&.# & % & r r s s s s d s z J P L g.h.h.c.c.!.cXmXVXVXNX",
"2X2XNX3X^.d.^.*.%.[ 8.r...} } 8./ ~ / / / | | 0.M 3 < 8 ` -.8.*X6XsXsXNX1.# & % & & & r r r * s r d f G P L s.s.g.a.h.(.kXkXlX5X",
"4XiXvXl.=.U d.V 9.9...r...-._ | ~ / / / | [ %.9.B < > w -.q.m.6XsXNXNXNXl.. & & & & & & & % % * t t s f x J P P a.Q k.v.).S.S.D.",
"iXvX^.R =.b.^.&.n.Z.} 8.$...} _ ` ..` ] #.*.{ N 0 < < %.9.Z..X7XsXBXBXBXA.. # @ $ & & & & % % * t t t d f f x G x c W &.l.n.S..X",
"4X4X).kXMXMX`.).l.Z.$...8._ $.[ _ $.[ @.*.S.C 1 2 1 B .X;.m.:X4XNXBXBXVXI.X . . @ @ & & % % % % % r s d g f f x x c W R =.%.S.7X",
"vX4XVXMXMX!.!.d.n.C.9.$.9.$.[ [ 3.3.@.I I W H p 2 2 %.Z.;.S.:XNXNXBXBXSXI.X   . X @ $ $ % t % % % % r s s g f f d z I U U *.1X4X",
"iXvX3XkX^.R v.&.=.%.#.$.9.#.[ *.l.v.k.z $ $ $ + k 1 %.Z.m.{.:XNXNXNXVXVX).  X   X + # $ & & & * t s s s s d g g d z c I D &.;X1X",
"iXiXS.).'.kXMX&.*.%.#.$.%.( { D.(.b.G y i u y y k n ;.Z.q.].*XsXsXNXBXBXvX- X X   X @ & & & % * * % s s s s s s d s j S V @.S.;X",
"4XvX;XA.^.5X5Xl.n.%.[ [ { b O.S.'.a.u u u i i y = V 0.r.t.].*XdXsX4X4XvXVX&.  . X   + & & & * * * * * 4 s s s s 4 = 7 c U O.D.).",
"2XsX3.k I c l.*.l.%.[ [ { { *.^.d.G y u u u i y # O.Z.0.q..X2XsXiX3X;XiXBXvX-   X   . - = * = = * * * 4 4 s 4 * * = = l S U l.A.",
"sX.Xm n.uXk &.l.3.%.#.#.O.O.O.=.p a u u u u y y p D..X0.Z.@X1X1X1X;X;X4XvXVX^.      X + - = = = = = = = = % & # & - - j C U d.D.",
".XtX0.D O.U D.@.3.*.%.#.{ C Z 1 Z &.b.a.u y y y k ).;X*.n.A.A.^.S..XT.;X3XNXVX-       . # = t = = = = = = = = = = - - p V O.d.D.",
"2X|.1XA.&.l.*.l.D.0.3.%.O.U C k 6 V H G G G G a p S.S.%.*.&.d.^.).4X5X3XNXVXVX&.  X     # = t j v j j v c c c v j j = p V U *.d."
};
