/* XPM */
static char *_34fa5b23e144bc8f4990eb0ffcd45afMR20QKN5xeQ9ETI4[] = {
/* columns rows colors chars-per-pixel */
"64 64 237 2 ",
"   c #070C15",
".  c #090E16",
"X  c #090F18",
"o  c #071215",
"O  c #091415",
"+  c #0A1A16",
"@  c #07121A",
"#  c #0A131B",
"$  c #0B1A1D",
"%  c #141216",
"&  c #1A1417",
"*  c #12151B",
"=  c #1B1619",
"-  c #141A1E",
";  c #1A1B1E",
":  c #28161B",
">  c #23191B",
",  c #2C1C1D",
"<  c #301D1E",
"1  c #0F221E",
"2  c #14251B",
"3  c #32211E",
"4  c #0C1C23",
"5  c #0B1A25",
"6  c #121B23",
"7  c #1B1D22",
"8  c #101F28",
"9  c #291E20",
"0  c #341F21",
"q  c #0E2324",
"w  c #0D2129",
"e  c #122325",
"r  c #1C2525",
"t  c #132A26",
"y  c #13242B",
"u  c #1A252C",
"i  c #152B2C",
"p  c #1C2B2C",
"a  c #1E3223",
"s  c #1C332C",
"d  c #0F2730",
"f  c #142C33",
"g  c #1A2B33",
"h  c #182C36",
"j  c #1C3334",
"k  c #1A3538",
"l  c #242223",
"z  c #2C2423",
"x  c #252A2A",
"c  c #2D2C2C",
"v  c #342323",
"b  c #3B2523",
"n  c #362925",
"m  c #342D2A",
"M  c #3A2C29",
"N  c #23342B",
"B  c #26392B",
"V  c #39322E",
"C  c #222E33",
"Z  c #262E35",
"A  c #293637",
"S  c #233A34",
"D  c #243C3B",
"F  c #373837",
"G  c #422A26",
"H  c #462A25",
"J  c #432D29",
"K  c #44322D",
"L  c #4D332D",
"P  c #4B392F",
"I  c #52352E",
"U  c #59372E",
"Y  c #453A33",
"T  c #4B3C33",
"R  c #493834",
"E  c #433E3A",
"W  c #553731",
"Q  c #543B33",
"!  c #5B3C33",
"~  c #623B2F",
"^  c #653C35",
"/  c #2C4339",
"(  c #384639",
")  c #47443C",
"_  c #54453C",
"`  c #5B4338",
"'  c #5A493E",
"]  c #44503C",
"[  c #624136",
"{  c #65453A",
"}  c #67473B",
"|  c #6B4B3D",
" . c #744B3D",
".. c #7A4B3D",
"X. c #7C513D",
"o. c #1B3845",
"O. c #253B44",
"+. c #2C3B43",
"@. c #333D42",
"#. c #29444A",
"$. c #384646",
"%. c #37514D",
"&. c #284653",
"*. c #395559",
"=. c #375866",
"-. c #3A5E72",
";. c #3D6170",
":. c #484946",
">. c #574843",
",. c #544C44",
"<. c #5D4D43",
"1. c #534E4A",
"2. c #48554B",
"3. c #55544B",
"4. c #5D544B",
"5. c #485754",
"6. c #575955",
"7. c #5C5B55",
"8. c #634D43",
"9. c #6A4D41",
"0. c #764D40",
"q. c #685549",
"w. c #7B5343",
"e. c #785748",
"r. c #735B4C",
"t. c #675D54",
"y. c #735E53",
"u. c #4E6257",
"i. c #5B645B",
"p. c #76604F",
"a. c #696359",
"s. c #746253",
"d. c #7A6554",
"f. c #73645B",
"g. c #77695B",
"h. c #7C6B5C",
"j. c #505C60",
"k. c #566A68",
"l. c #466A7B",
"z. c #696B66",
"x. c #776C62",
"c. c #7A7367",
"v. c #727770",
"b. c #81523D",
"n. c #875A47",
"m. c #845C4B",
"M. c #885D51",
"N. c #8B624D",
"B. c #95644C",
"V. c #886756",
"C. c #836D5B",
"Z. c #956B56",
"A. c #88715E",
"S. c #9A735B",
"D. c #A3765B",
"F. c #877565",
"G. c #8C7468",
"H. c #8C7B6B",
"J. c #977A66",
"K. c #877E73",
"L. c #A57C65",
"P. c #9A816C",
"I. c #8A8378",
"U. c #998877",
"Y. c #A9846B",
"T. c #B38A6D",
"R. c #A68975",
"E. c #B48E73",
"W. c #A6927E",
"Q. c #B99579",
"!. c #C19E7F",
"~. c #517487",
"^. c #5E8296",
"/. c #668898",
"(. c #728C91",
"). c #688EA4",
"_. c #6E96AC",
"`. c #7498AB",
"'. c #759CB2",
"]. c #8A8983",
"[. c #978D83",
"{. c #98948A",
"}. c #9B9992",
"|. c #A38B81",
" X c #A79786",
".X c #AB9C8B",
"XX c #B79B85",
"oX c #A79E93",
"OX c #BBA28C",
"+X c #ACA294",
"@X c #A8A49A",
"#X c #B6A896",
"$X c #B8A896",
"%X c #B3A99C",
"&X c #82A1B0",
"*X c #B3ADA3",
"=X c #B2B0A7",
"-X c #BBB4A8",
";X c #C19E82",
":X c #C3A285",
">X c #C3A58B",
",X c #C6A98D",
"<X c #C4AC94",
"1X c #C7AC96",
"2X c #C7B199",
"3X c #CCB39A",
"4X c #D1B69E",
"5X c #C2B4A3",
"6X c #CCB9A4",
"7X c #C4BBAC",
"8X c #C9BAA8",
"9X c #D2BCA6",
"0X c #C4BEB3",
"qX c #CDC1AF",
"wX c #D3C2AD",
"eX c #CCC2B4",
"rX c #C9C5BA",
"tX c #D3C5B3",
"yX c #D5CAB9",
"uX c #DACEBC",
"iX c #CCCAC3",
"pX c #D3CDC3",
"aX c #D9CEC1",
"sX c #DCD3C4",
"dX c #D7D4CB",
"fX c #DADBD7",
"gX c #DCDAD4",
"hX c #E1D7CA",
"jX c #E3DED4",
"kX c #DEE0DD",
"lX c #E6E3DA",
"zX c #E6E8E4",
"xX c #EBEDEA",
"cX c #EEF0EE",
"vX c #F0F2EF",
"bX c #F3F5F3",
"nX c #F7F9F7",
/* pixels */
"l.l.~.~.)._._._._._._.'._._.).)._.'._.^.l.*.#.O.k f 4 5 4 4 5 5 4 i i i g D 2.5./ i q q $ # $ 4 $ $ # $ # @ @ @ @ # @ 5 5 4 5 4 ",
"#.#.#.=.~.^._._._.'.'._./.~.;.=.l.^././.l.;.&.h f h h h g u 8 5 4 k D g u i k S j j D D s q $ $ $ $ $ # @ @ @ @ @ @ @ @ @ 5 5 # ",
"f f f f o.-./._.'.'.).~.=.#.k f h #.*.*.&.o.h h &.=.*.#.+.C Z A @.+.D u # # i / / $.2.%./ j i i t $ @ # @ @ @ @ @ @ @ @ @ # # @ ",
"w 5 8 w w o.;.).'._.~.&.O.k d w 5 5 w i 4 @ q O.*.j.k.v.z.:.:.t.a.6.:.$.A C S S N S j s s j k %.*.k $ @ # @ @ @ @ @ @ X . @ @ @ ",
"8 5 w 5 5 w o.l.)./.-.*.&.k h i 5 # 4 4 5 4 j / 5.v.@XrX*Xa.E F.F.f.7.:.:.5.:.s 1 $ $ + $ $ q D $.j 4 $ # # @ @ # @ @ . . . @ # ",
"f y 4 5 5 5 d &.-.=.&.&.k h #.%.D t q q 4 f D 6.}.iXgXpX+Xx.E x.F.y.g.f.3.6.3.$.C # o O O O o # $ $ # $ $ # @ @ # @ @ X .   @ @ ",
"k i 4 5 5 5 5 f o.o.&.#.k f #.u.%.g i t y D 7.{.rXgX0X-X%XK.E x.x.,.4.f.x.7.7.3.:.D $ O + + + o   o O + + + # # o o O O . . X @ ",
"#.O.w 5 w t i f h o.#.#.#.o.O.#.O.y q q j 6.I.-XpX%X[.{.oXU.4.x.h.1.1.4.t.7.:.) :.5.F # O + $ # o o o O O O + $ + o O O . .   @ ",
"j.=.O.h S ( ( / D k j O.#.#.&.#.k i i q $.v.{.rXoXa.a.+X7XU.d.h..X.XK.a.t.3.F F :.1.5.Z o o # # o o o o o O O O + + + O .   @ @ ",
"5.%.#.k S / S D D y 4 y i j #.#.D D D p z.I.+X*XK.t.W.W.J.e.e.A.$XW.r._ ,.,.:.c F :.3.2.u O O o o o o o O O o O + $ $ O o . . @ ",
"j j j k / D i j g 5 @ $ q q q i D #.S $.c.K.*XK.t.F.P.N.n.0. .e.V.e.` K T :.1.F F F 6.7.:.* . . . . o O $ + O o o O + O o . . . ",
"/ S j D D y # w y 5 @ $ 4 $ q q f j S 7.x.[.U.<.r.C.w.w. . .w.N.V.w.{ I Q f.,.F F F 1.a.7.Z 8 5 @     @ # # $ $ o   O O @ @ X . ",
"z.i.2.j q # # 4 w 4 q q q q q t i j 2.t.H.R.8.8.r.^  .e.Z.L.Y.R.L.S.w.! L F.4.m V E 1.t.7.j.l.-.o.5 8 5 @ @ y y # o @ @ @ @ . . ",
"i.a.6.S e $ # 4 4 5 5 q q t S ( / :.q.g.H.C.Y s.T 8.R.XX;XQ.E.R.Y.L.Z.0.I F.,.m z ) ,.1.7.z.`.`.l.-.-.o.@ @ f O.h @ @ @ @ @ . . ",
"( ( / t q $ @ 5 5 @ @ # 4 t / 6.u.t.y.s.C.' Y y.K e.r.q.e.Z.S.Z.Z.N.9.L K K.<.m z ) q.,.:.7.(.`.(.(./.&.5 i =.^.~.O.y # @ X X . ",
"s t q 5 $ # w h w @ @ $ q q s 5.i.s.s.h.r.K T q.G n z z K { n.n.n.{ n > ) H.' V z Y 8.q.<.3.z.z.5.5.5.k 4 #.~.&X`.~.&.4 . . @ . ",
"q q 4 4 # 4 +.$.s $ # $ 4 4 i %.z.c.h.q.` n _ ' G J K R R P { e. .! M z t.C.<.) m m T _ q.<.a.6.B a N y 8 $.k.(.(.k.#.5 . . X   ",
"p t q 4 5 y / / s t q $ 4 $ i *.z.F.d.` _ z Y P I e.e.e.9.q.U.$Xw.{ { 9.C.d.8.' V z n Y ,._ 4.a.2.:.( N i 2.k.k.%.j t #         ",
"r e 6 7 7 e k j t t e q 4 $ k *.5.I.g._ T , K K [ J.Q.E.R.XXhX9Xn.{ | e.F.r.8.8.K m l V ,.Y t.z.i.( / N B 2.u.5.$.S B e     # r ",
"$ - ; 7 r y i i s B N e 4 4 k #.5.{.F.' _ v M J [ L.Q.XXE.1XyX2Xm.{  .e.H.r.' q.R m m m ,.V ,.a.7.( 2 2 B 3.i.5.$.5.z.$.y u 2.{.",
"# * * e y 4 q S ( ] ( N t A $.%.v.+XH.C.r._ 9 M I B.L.Y.Y.XXZ.Z.n. . .m.J.r.Q 8.T z m :.1.m m 7.i.:.2 + N 2.i.A r A $.x 4 6 Z :.",
"# # - e 6 $ 4 N ( ] ( ( A 5.k.k.@X X$X.Xd.t.v z b 0.S.L.XX9XR.0. . .w.m.A.{ T 8.Y z F 1.m m c 1.6.2.$ o $ $.6.$.8 @ 5 4 4 8 4 4 ",
"X # 5 4 # O $ r B ( ( / $.i.v.@X+X XeX5Xr.f.E z T ! N.J.J.M.^ U I !  .e.V.` ' 8.M z F V c 1.F 2.2.3.e O x {.}.:.u 8 A $.$.A C C ",
". # * y 6 $ 6 e s / B s D 2.{.$X X-XgX-Xr._ T z F.q.w.Z.m.^ b < : b [ e.r.R s._ l z m z 1.z.:.a.3.6.a + p }.@X$.g @.z.{.].6.+.+.",
"# ; r p r - 6 q t N N x Z v..XP. XeXeX+Xq.' Y n I.[.! Z.L.N. .~ ^ ....| R E h.V l n m c 1.c.7.a.) 6.:.$ 5 z.{.:.Z 6.}.*X].6.+.A ",
"- r - 6 ; - 4 $ q t p p 7. XP.U.$X#X|.U.q.q.Y Y t.I.n ` L.L.w.w.n.n.{ n l f.,.; l m Y ,.1.t.z.7.V ) 7.F 6 F ].5.Z $.i.z.2.$.C y ",
"; - $ 6 ; - $ $ t s p ( P.P.R.#X.XC.U.J.r.y.T _ ,.a.z , I m.M.M.m.[ , % m I.x . * c t.a.E ,.a.3.) ) 4.6.Z p :.( A ( A Z p u u y ",
"* * * - ; ; $ $ e s t a.P.P.U. XA.A.P.F.d.s._ Y a.:.% , , v H L b > & . 3.z.% % O c I.+Xt.,.c.) ,.4.,.7.6.N ( ( B $.$.A Z C C x ",
"* * # # % - # $ 4 t p a.A.C.H.J.r.s.s.V.d.r.' _ c.c % > , < v v , = % * z.m % l - z f.%X%X+XU.) _ q.4.,.a.6.] N 2 ( 2.:.F A Z Z ",
"# # @ * * * * $ $ $ r 4.s.d.C.r.e._ q.V.d.r.' 4.:.; % = , , v z > = % 7 a.- % * ; x ,.I.@X7X-Xc.,.Y _ q.a.x.F $ e ) 4.3.) A A Z ",
"X @ @ * * * * * # @ $ :.s.d.V.{ | P <.A.d._ K R c O % = > , , , > % . c t.* 7 # - c ,.f.g.P.U.U.I.c.7.a.g.x.p $ a ) ] ( ( / A F ",
"X @ @ # $ $ $ 1 1 $ 2 B x.U.d.` ` Q 8.A.q.Y M n > 7 % & > > > > = % O c F * 7 % * x 4.f.t.y.d.F.t.x.I.c.f.x.x $ $ $ t s ( ( S $.",
"@ @ # # @ # 1 B B a N ( I.+Xr.` T K ' C.q.T M > % z z > > & & = = = % l c x ; * - l I.U.t.s.d.c.a.z V t.x.6.Z e @   q s j S D $.",
"@ # 6 7 * $ $ x ] a.I.+X7XeXF.q.R K K r.r.` T M z v K b , 9 > > v z E a.:.3.,.x x F %X+XI.g.C.h.a.c l E 1.:.x c c # # A 5.i.].}.",
"$ $ 7 7 - # 5 F H.OX2X$X$XyX#XU.H._ <.r.r.q.` Q Q 8.` J L e.9.Q C.y.h.H.V c E l c 7.-X$XU.q.A.s.a.F z ) m Y V v E ( i.@X@XoXiXdX",
"6 5 $ $ # 5 F  XwXtX6X6X$X5XeX5XuXeX-X.Xh.F.| Q K _ q.8.V.J.L.M.V.OXXXd.) ,.t.,.4. X7X$XU.f.+XU.c.:.m ) V T Q K K ,.{.=X{.v.v.v.",
"6 $ $ 5 5 x P.wXsXtX5X2X5X2X XH.+XlXsX$XU.-XG.| q.t.h. X5XwX1XJ.Z.OXOXF.<.C.U.P.U.H.%X-X Xc.pX7X.Xc.V F M K P L P Q x.].].i.6.6.",
"6 * 5 5 r x.1X6X6X6X8XuX8XP.q.q.F.eXyXJ.y.-X5XU.8.H.5XpXyX9X6XR.E.1XR. XH.P.XX5XOX.X7XyX+Xg.0XpXeX%Xq.4.Y K P I Q Q <.7.2.:.:.:.",
"r r x x F  X1X>X,X2XtXsX6XJ.s.d.OXsX X` ' +XsXXXe..X1XtX5XOXOXR.2X.XV.6X5X1X1X2X.XU.5XlX-X[.eXyX0XU.H.|.[.R K L Q ! ` F y 8 e y ",
"Z p C F 3.W.>X>X1X1X2X6XW.C.rX8XyXeXF.q.f.rXhXR.Z.yXsX6XA.P.J.Y.3XU. XyXeX2XXXtXW..X5XpXdX+XyX7X}._ q.C.$XF.J J I ! ` :.g y 8 8 ",
"y D 5.:.F R.:X2X2XOXOXOX XU.pXlXjX5X XC.U.uX1Xm.OXuXyXXX9.A.J.OXtX.XuXyX$XR.$XtX XyX.X.XgXyXyX-Xc.V R { h.[._ G L ! [ ' r $ # # ",
"$.$.Z r F R.:X2X1XXXY.R.eXU.8XjXgX-X X9.oXyXR.R.sXsX6XL.9.e.E.6XaX6XsXuX9X$XqX1X9XdXF.H.+XgXeX.Xt.V K 8.r.H.s.J L ! [ 8.A 4 @ # ",
"p y e 4 F E.:X1X1XXXm.P.sXU.#XdX7X.XG.8.rXsX6XaXjXtX>XV.! e.Y.>XtXtXuXhXtX9XXXXXyX-Xp.H.H.7XeXW.s.Y R p.r.F.h.P I ! { 9.:.g y 8 ",
"u 8 e e F E.XX>X1XXXZ.Q.5X+X7XuXW.F.e.I.cXlXsXyXqX6XQ.w.U V.T.:XyXsXjXlXtX3XS.W.5XR.J.H.I.U.+XH.r._ <.C.d.F.h.L I ! [ 9.:.h u u ",
"u 5 e e ) E.Q.:X,XQ.S.Y.Y.OXeX.XP.V.e.0XnXbXjXqX1XR.Z.e.9.L.D.E.4XuXjXhX6X2XR.XXOXJ.W.C. XF.U.F.r.' r.F.H.F.y.L I W [ | ,.g u f ",
"C 8 e e ) E.:X:X>XQ.S.D.S. XR.J.P.V.U.zXbXnXlXwX1XJ.w.| N.Z.B.L.,XuXlXdX6XuXtX3XW.R..XR. X{.oXH.q.r.d.F.{.f.8.L I ! [ | <.g u g ",
"C y y e ) E.Q.:X:XQ.D.Z.Z.P.A.P.J.F.-XbXbXbXvXuXOXR.R.Y.Z.b.X.S.:XyXlXlXuXsXyXXXR.eX$X.X X-XjX.X' p.A. Xc.f.Q I W ! [ { 8.y 5 4 ",
"u y p y ,.Q.:X>X,X:XY.Z.Z.V.A.J.J..XgXnXbXbXbXlXtXtX9XXXD...U N.!.tXjXlXhXuX6XXXaXxXpX%X@XiXzX$XC.<.h.F.s.q.J L W ! ` { { 7   X ",
"y y g i 4.XX>X1X3X,XY.Z.Z.V.S.N.W.pXbXnXbXbXbXxXuXtX6X>XD.{ H n.Q.wXhXhXhXwXXX1XxXxXxXiXrXdXlX$XH.8.<.>.<.P G L W ! ! [ { c @ @ ",
"u g u y t.;X1X3X3X,XE.D.Z.S.Y.A.iXcXnXnXbXbXbXbXgX6X3X>XL.{ H  .E.9XuXuXwX>XY.aXxXxXbXzXzXzXzXeXH.d.Q M M b G L I ! ! ` | F 5 @ ",
"C g g u t.:X3X4X3X>XQ.D.n.B.J.$XxXbXnXnXbXbXcXxXzX8XOXE.S.[ H [ T.3XwX9X>XY.XXzXxXcXxXzXzXzXfXrX XC.8.m , 3 G L I ! ! [ { >.8 @ ",
"@.A +.+.f.:X3X4X1X;XT.D.b.S.XXjXcXbXbXbXbXbXcXxXxXdXXXY.Z.{ H I D.,X3X,XT.S.eXxXxXxXzXkXfXdXrX%XoXr._ c , < b H L W ! ! { <.g @ ",
"+.A +.+.f.:X3X3X,XQ.T.D.X.Y.wXzXxXcXcXvXvXcXxXxXzXzX$XD.N.^ H H Z.Q.:XE.S.R.jXzXxXzXfXdXiXrX*X@XoXh.Y r n , v G L I W ! { 8.Z 5 ",
"k g Z Z t.;X3X3X,XQ.T.D.X.J.tXzXzXxXxXxXxXxXzXxXfXzXrXZ.X.~ G G n.Y.E.D.Z.0XfXlXzXfXdX-X%X*X@X@X%XG.z $ m 0 v G L L W ! ! | F 8 ",
"y u g u 4.;X3X3X,X!.T.D.X.m.eXkXzXzXzXzXzXkXfXzXfXfXgXA.{ I 0 b X.B.S.N.R.gXiXkXfXiXdX*XoX*X%X*X-Xf.6 # c v < b J L I W ! | F w ",
"u u g u ,.Q.3X3X,XQ.T.D.n.! oXdXfXlXkXfXdXiXrXrXdXrXfX[.U G b b ....w.m.7XiXiXgXdX-XdX%X%X-X-X0X*XE # @ r M , v G L I W ! { E 8 ",
"+.+.O.C 1.Q.3X3X1X;XE.L.N.L 7.*XrXiXiX0X-X*X@X@XrX-XiX*XK G H b { b.~ A.pX0XpXdX7X0XrX%X7X0XrXrXK.l @ @ - m , v b H L I ! { E 8 ",
"+.+.+.+.1.Q.1X3X1X:XQ.L.N.I z a..X%X%X%XoX+X X X*X-X0XrX' H H b ! B.b.|.eX7X7X0X5XeX8XeXeXrXrXoX_ 6 @ @ @ c , , v G J L W { 1.O.",
"7.@.+.A :.E.1X4X1X:XE.L.n.W v V f.U. X.X.X.X X|.[.%X*XiXt.b J 8.e.B.B.1X-X+X$X5X7X5X5X$X%XoX{.x.1.$ @ @ @ l z : < b G J I { 4.5.",
"{.z.@.A :.R.,X4X3X:XE.D.n.W z V m.8.<.q.y.f.g.F.F.%X%XpXf.Q H.8X6XT.XX8X.XK.C.y.q.q.8.` Q Q Q P M # X @ @ 7 z > : v b G L ! q.z.",
"}.{.z.F F J.>X6X4X>XE.D.n.I v 9 w.^ v v v v v n M R >.y.q.U.J.Z.;X9X2Xr.J b b G H I I I W W Q P M # @ @ @ - l & & > , b J L 8.z.",
"}.}.{.z.$.A.:X6X4X,XE.S.X.L v = L { b 0 G ! { { L b 0 0 0 M J G V.3X3XM.v b J L I W ! ! ! Q P K z @ @ . . * 7 . . % = , b K ' :.",
"}.{.{.].z.h.Q.4X9X1XE.Z.{ H v = n { ! [ B.D.D.N.0.! b 0 0 0 , , 8.1X>XL.{ v G L W W ! ! W P J n 7 . . . # 6 7 * % % = > v K >.:.",
"].{.].I.K.F.E.4X9X3XE.N.^ H b = v N.B.B.D.D.Z.L.R.J.F.y.f.x.y.8.G.6X3XXXJ.I v H I U U I J n z ; # . $ 7 7 7 = = = = > v M Q ' F "
};
