/* XPM */
static char *_576c88fd2ee4a11b9049f0e4cd487adt4K1d4r6i3jJHIb2[] = {
/* columns rows colors chars-per-pixel */
"64 64 230 2 ",
"   c #020202",
".  c #090604",
"X  c #0C0906",
"o  c #05050A",
"O  c #08080C",
"+  c #0A0A0C",
"@  c #130D0B",
"#  c #1A0B08",
"$  c #15110E",
"%  c #1A130E",
"&  c #0C0C12",
"*  c #110E11",
"=  c #0F1117",
"-  c #131215",
";  c #1C1611",
":  c #13141A",
">  c #1C1918",
",  c #210F0C",
"<  c #23140E",
"1  c #231611",
"2  c #281611",
"3  c #241A15",
"4  c #2B1C15",
"5  c #251D19",
"6  c #2C1E19",
"7  c #321E17",
"8  c #2D211B",
"9  c #28211C",
"0  c #33231C",
"q  c #37261C",
"w  c #39251D",
"e  c #1C1E24",
"r  c #1D2227",
"t  c #2C2522",
"y  c #27282A",
"u  c #342720",
"i  c #342923",
"p  c #372B27",
"a  c #3B2B23",
"s  c #2F312F",
"d  c #3A312D",
"f  c #252730",
"g  c #262B31",
"h  c #292E33",
"j  c #2D3236",
"k  c #2F3438",
"l  c #373635",
"z  c #31363A",
"x  c #343A3D",
"c  c #3C3C3C",
"v  c #41281F",
"b  c #422D24",
"n  c #4A2C25",
"m  c #483227",
"M  c #45342B",
"N  c #4C342B",
"B  c #53352A",
"V  c #563428",
"C  c #53392E",
"Z  c #5A3B2D",
"A  c #453A35",
"S  c #4A3B32",
"D  c #533B31",
"F  c #5B3E33",
"G  c #663A33",
"H  c #4C403A",
"J  c #5D4135",
"K  c #54433B",
"L  c #5C453A",
"P  c #624235",
"I  c #634639",
"U  c #67483B",
"Y  c #6C4C3C",
"T  c #724D3B",
"R  c #75483C",
"E  c #7B523C",
"W  c #353D40",
"Q  c #393E42",
"!  c #3C4245",
"~  c #3B4446",
"^  c #444545",
"/  c #414649",
"(  c #454A4C",
")  c #494C4E",
"_  c #5A4D44",
"`  c #57514D",
"'  c #474D50",
"]  c #494E51",
"[  c #4D5254",
"{  c #4F5459",
"}  c #515659",
"|  c #575859",
" . c #555A5C",
".. c #684E43",
"X. c #764C43",
"o. c #695447",
"O. c #745243",
"+. c #7C5443",
"@. c #795A49",
"#. c #6C5E58",
"$. c #76604E",
"%. c #7C6557",
"&. c #565C61",
"*. c #595E63",
"=. c #5C6165",
"-. c #5E6369",
";. c #636568",
":. c #656A6E",
">. c #766E67",
",. c #666C71",
"<. c #696E73",
"1. c #6C7176",
"2. c #6E7479",
"3. c #71767B",
"4. c #74797E",
"5. c #797878",
"6. c #81573E",
"7. c #875B47",
"8. c #835D4A",
"9. c #995D55",
"0. c #86624C",
"q. c #8B634C",
"w. c #94664C",
"e. c #8B6453",
"r. c #876958",
"t. c #976A54",
"y. c #936D5C",
"u. c #8A715E",
"i. c #95725D",
"p. c #9B735A",
"a. c #A0605D",
"s. c #A6775A",
"d. c #8D7663",
"f. c #897068",
"g. c #947563",
"h. c #9B7664",
"j. c #977A66",
"k. c #9C7B6A",
"l. c #A97B65",
"z. c #A37D6B",
"x. c #B4776C",
"c. c #C36754",
"v. c #B0805F",
"b. c #9D826D",
"n. c #9B8376",
"m. c #AA836A",
"M. c #B58567",
"N. c #BB8B6E",
"B. c #AC8473",
"V. c #A68976",
"C. c #BB8D73",
"Z. c #B78A78",
"A. c #B38D7A",
"S. c #B7917B",
"D. c #BC947C",
"F. c #C28D75",
"G. c #CE8F73",
"H. c #C6977B",
"J. c #767C81",
"K. c #787E83",
"L. c #7B8085",
"P. c #958A85",
"I. c #B09487",
"U. c #BB9582",
"Y. c #B79987",
"T. c #BD9A86",
"R. c #BDA391",
"E. c #C39681",
"W. c #C29A85",
"Q. c #CB9C82",
"!. c #C49D8B",
"~. c #CB9D8B",
"^. c #CC9E8C",
"/. c #CAA387",
"(. c #C5A18C",
"). c #CBA38D",
"_. c #D4A484",
"`. c #D4A489",
"'. c #D9A98B",
"]. c #C5A793",
"[. c #CCA492",
"{. c #CBAA94",
"}. c #CCAD9B",
"|. c #D5A797",
" X c #D4AD93",
".X c #DAAE93",
"XX c #D3AD9A",
"oX c #D2B096",
"OX c #DEB196",
"+X c #D5B399",
"@X c #DCB49B",
"#X c #E2A98B",
"$X c #E5AB93",
"%X c #E2B394",
"&X c #E6B995",
"*X c #E2B59B",
"=X c #E6B99C",
"-X c #EBBD9C",
";X c #CBB2A6",
":X c #D7B6A3",
">X c #DCBBA4",
",X c #E5BAA5",
"<X c #E4BCA4",
"1X c #E3BDAB",
"2X c #ECC19F",
"3X c #DDC2B3",
"4X c #E9C3A5",
"5X c #EDC3A4",
"6X c #E5C3AC",
"7X c #EAC4AC",
"8X c #EECAAC",
"9X c #F1C9AB",
"0X c #E4C5B3",
"qX c #EAC7B3",
"wX c #EDCAB4",
"eX c #ECCCBA",
"rX c #F1CEB3",
"tX c #F0CEBA",
"yX c #EFD1B7",
"uX c #EED1BC",
"iX c #F1D1B7",
"pX c #F2D2BC",
"aX c #EDD4C3",
"sX c #ECD5C6",
"dX c #F2D5C3",
"fX c #F3D9C5",
"gX c #F4DBCA",
"hX c #F5DACC",
"jX c #F3DED1",
"kX c #F5E2D3",
/* pixels */
":.,.,.<.<.<.1.<.1.<.<.2.,.<.<.<.,.<.,.1.1.1.,.,.,.<.,.,.:.=.=.} [ | =.*.=.-.;.;.:.-.=.=.*.=.=.-.=.&.&.=.=.=.=.*.&.*.&.*.=.&. . .",
"<.<.<.<.2.1.2.1.<.1.1.1.<.<.1.1.1.1.<.<.,.1.<.:.=.| ` ^ A A S a 0 u t t d c ^ [ *.=.:.=.=.=.-.-.*.*.*.=.=.=.-.=.&.*.*.*.*.*.&.&.",
"2.1.1.1.3.2.2.3.<.2.2.2.<.<.<.3.2.1.1.1.:.=.` H M b m b N B N b w q 8 2 % % $ ; 9 s c ) *.=.=.;.=.=.=.=.-.-.-.=.&.*.=.&.=.*.&.&.",
"1.1.2.1.2.3.1.2.1.3.3.<.<.1.<.1.1.1.2.=.c u w n V Z Z Z Z Z Z m m w q 8 ; % $ @ X . . + y ^  .=.=.=.=.=.-.-.=.=.=.*.=.=.=.*.&.&.",
"1.2.2.2.3.3.1.2.,.2.1.:.:.2.1.1.1.:.( 9 4 B T 6.E E 7.q.q.q.q.+.Y J B a 8 2 < % @ X .     . y [ =.=.=.*.=.=.*.=.=.=.=.*.*.&.&.&.",
"1.3.2.3.3.4.2.1.1.1.1.<.:.1.3.4.=.y 1 b Y w.s.M.s.s.v.M.s.s.p.w.+.T P C b q 8 4 1 % @ X .     - / *.*.*.=.*.*.*.*.*.*.&.=.&. . .",
"2.3.3.3.3.4.3.1.1.1.1.:.<.<.1.| 9 4 J 0.s.N.H.H._.H.N.M.v.s.s.w.0.8.T P N b a 0 0 4 1 % @ X     + c  .*.*. . . . . . . .*. .} } ",
"3.3.3.2.3.4.2.1.<.1.3.:.1.1.[ 3 4 J i.H._._._.'.'._.H.H.D.N.M.s.s.q.E U Z N m a q q 0 4 1 % X .   o l  . .|  .| } |  .}  .} [ { ",
"2.3.J.3.J.4.4.1.<.1.1.<.1. .t 0 J i.H..X&X&X%X&X=X%X'..X).H.C.M.s.q.7.T P J C m a q 0 4 4 2 % @ .   + /  .}  .| } } } { [ [ [ ] ",
"3.3.J.3.3.4.3.1.1.1.1.2.<.A u L g. X=X-X-X-X2X5X5X&X%XOX.X).Q.H.C.l.p.@.T Y I Z m w 0 4 4 3 3 ; X     - [  .} } } } [ [ [ ] ' ' ",
"2.3.4.2.3.4.3.1.1.3.3.2. .A K u. X5X2X-X2X5X9X8X5X&X%X%XOX.X.X`.Q.C.l.w.7.+.T P B n 0 0 4 4 4 3 % .     s  .} } [ [ [ ] ] ' ) ( ",
"2.4.3.2.4.4.3.2.1.1.2.<.` _ %.U.4X5X5X5X5X5X9X9X8X5X-X&X*X*XOX'.Q.F.m.t.q.7.7.E F N a 0 8 4 4 4 2 @ .   $ ( [ [ [ ] ] ' ( ( ( ~ ",
"2.4.3.3.3.4.3.3.3.1.2.:._ o.b.@X7X5X5X2X5X5X9XrXiXtX7X,X=X=X%X.X_.H.M.s.w.7.7.7.T B b a 0 4 4 4 6 1 X   . l [ [ ] ] ) ( / / ~ ! ",
"4.4.4.2.3.3.3.4.3.2.3.;._ %.T.4X7X5X5X5X9XrXiXdXdXdXeX7X=X<X=X%X'.Q.N.s.w.q.7.7.7.P N b 0 0 4 4 8 3 $ .   y [ ] ] ) ( / ! ! ! Q ",
"J.4.3.2.3.1.3.3.3.2.2.| _ %.(.4X8XrX5X5X8XdXgXgXgXfXdXeX=X<X6X=X'.Q.N.s.t.t.q.q.7.P C b q 0 0 8 8 4 ; X . > ) ) ( / / ! Q Q Q x ",
"K.3.3.3.1.1.3.3.2.2.<.` K u.[.4X8XrX9X8XwXgXjXkXjXgXaXeX<X<X6X<XOX_.N.s.s.s.t.q.+.J N b a 0 0 0 8 4 ; @ . - ( ) ( / ! Q Q x x z ",
"J.4.3.3.1.3.4.2.2.2.1.) M %.T.@X4X8X8X8XrXfXgXgXjXsXuXeX<X=X<XOX.X`.N.s.l.l.t.0.T D M a a 0 0 0 8 4 % X . > / ( / ! Q x x z z z ",
"J.4.4.4.1.1.4.2.2.1.2.` M o.V.).<X4X5X8XwXpXdXdXaXeXqX6X*X.XOX`.`.H.N.N.N.m.p.+.P D M a a 0 0 0 8 3 % X . y ( / ! ! x x z z k j ",
"4.J.4.4.1.1.4.4.1.2.1.=.S o.k./.*X5X5X8XwXyXdXdXwXwXqX6X4X@X@XOX_.F.F.F.N.M.t.Y F L S a a u 0 0 8 3 % X . s ( ~ ! Q x z z k j h ",
"3.J.4.4.3.2.J.4.1.4.P.n.L ..i.S.@X4X9X8XwXyXiXgXaXaXeXqX4XOX.X.XQ.H.H.H.F.l.q.Y Y I C M a 0 0 0 8 4 % . $ s l ! ! x x z k j h h ",
"2.4.J.2.3.2.4.2.1.P.G.$XZ.@.u.W.4X8X8X8X8XiXyXfXgXaXuXeXeX4XOX.X'._.`.`.F.s.+.Y O.L D N a 0 0 0 8 6 ; X % < < t W x z z j j h h ",
"4.4.4.3.4.3.3.2.1.P.c.'.rXU.r.oX8X8X8XrXrXpXfXgXgXsXaXaXaXqX`.). X`..X@X/.l.Y F P F J D m w 0 0 8 6 % @ 4 2 # 3 x x k k j j h g ",
"4.3.3.3.4.4.3.2.1.P.G.-XrX@Xr.{.8XwXyXiXiXdXgXkXgXfXuXdXuX@XH.H././.`.@X.XC.8.U J P Y P N a 0 0 0 4 @ < 7 2 # t W x k k j j h g ",
"J.4.J.3.3.3.2.2.2.3.XX5X%X%Xb. XwXwX0X6X+X{.{.{.+X6X6X6X XQ.N.s.Q.C.N. XW.h.0.U D N C m a 0 7 0 0 4 # < 4 2 1 z W z k j j h g f ",
"J.4.3.3.3.3.2.1.3.3.;X$X#X,X(.6XiXqX>X XD.B.k.$.L I @.8.7.w.w.l. Xp.P O.D 0 6 8 3 ; 5 3 3 4 6 0 0 0 < < , < t ! x x k j j h g f ",
"K.4.2.3.3.3.1.1.2.2.;X$X#XpX}.6XrXwX6X:X).(.;XI._ L %.X.7.B.XXeXeXt.w 3 % @ t ) u 0 d u 6 8 0 0 0 0 1 4 # 1 z ! x x z j j h h g ",
"4.J.4.3.4.3.3.2.2.1.P.1X-X5X(.1XwXiXdXdXgXeX0X:XU.l.t.t.H.4XpXhX,X7.w 6 1 ; K u.r...S a i p i u 0 6 1 1 < t ! ! W x z z j j h h ",
"L.K.4.4.3.2.3.2.3.1.1.R.rX5XH.}.wXrXfXgXhXfXuX6XXXW.U.}.0XrXpXdXQ.R w 0 6 6 a I @.U N M M d a u 0 4 % 2 6 x ~ ! ! x x z k j h h ",
"L.J.K.3.3.3.3.3.1.1.1.5.{.5X>XY.7XrXpXgXhXjXgXaXqX0XaXjXfXpXdXaXE.+.v w 0 u a D ..O.....L S d u 0 3 < 4 d ~ ~ ~ ! Q x x z j j h ",
"J.K.J.4.J.4.3.3.1.2.2.1.5.P.}.V.+XrXiXiXdXfXgXdXwXeXdXdXiXpXgXsXXXl.Z w w 0 u b I X.O...J M a 0 8 % 9 c ( ( / ~ ! Q x x z j j j ",
"4.J.K.J.4.3.3.J.2.2.4.1.1.1.<.>.I.6X8XwXrXpXdXdXeXwX7X-X5XiXgXjX1XE.R w 0 7 8 8 N ....F M a 0 9 1 @ x [ ) ( / ~ ! Q W x x k j j ",
"4.4.J.K.4.K.4.3.2.2.3.2.1.1.:.#.k.{.@X6X7XeXdXdXwX=X'.G.5XpXdXkXeXQ.U 0 0 4 1 3 8 N D M a 8 5 3 % $ ! [ ) ( / / ! ! Q x x k j j ",
"J.K.J.J.J.K.3.4.3.3.1.1.2.1.1.#.u.Y.{.oX>XqXdXuX<X_.G.`.6X1XeXaXqXC.F 0 7 4 1 1 3 u a a 0 9 3 ; @ ; ( [ ) ) / / ! ! W x x z k j ",
"J.K.J.J.J.4.4.4.3.3.1.2.3.2.1.;.u.b.Y.{.+X6XeXwX*X_.@XgXaXXX[.U.h.+.w 1 3 6 6 5 5 8 i u 8 5 ; ; @ > ] [ ] ( / / ! Q W x z k k h ",
"K.L.4.J.J.J.4.3.2.4.1.2.3.2.1.>.u.V.V.I.R.>X0X6X@X6XaXaX3X;XY.g.O.r.M 5 3 5 9 8 9 8 i 0 5 ; ; % @ y [ ) ) / / ~ ! Q x x z j j h ",
"J.J.4.4.J.4.4.2.2.4.2.1.1.2.1.;.g.j.V.b.V.].:X+X}.>X;X;X}.R.Y.r.@.k.L t t i i i 9 3 5 9 3 % ; $ $ x [ ) / / ~ ! Q x x z k j j h ",
"J.J.4.4.4.3.J.3.2.4.3.2.2.3.*.h d.r.j.n.j.V.{.R.R.I.V.Y.].!.^.Z.B.z.Y m M p t 9 5 ; 3 3 ; % $ @ 5 ) ) / / ~ ! Q x x z z k j h h ",
"4.4.4.4.4.4.4.2.2.J.2.<.=.( f : u.V.r.b.d.d.Y.T.V.e.y.U.U.x.x.x.a.X.G n w 4 3 6 9 9 3 ; % $ @ X - x / / ~ ! Q x x z z k j h h g ",
"4.J.3.J.4.3.4.4.<.&.Q y : - : - o.(.j.%.u.$.j.Y.g.r.].6X6X1X,X|.F.l.9.X.n w 0 a 0 9 3 % @ @ X .   o - y z Q x x z k j j h h g g ",
"4.4.4.4.4.3.,.{ h : & & & - & o d k.g..._ o.@.u.%.i.(.oX@XoXD.y.U F Y D u 0 0 8 3 ; $ @ @ X o .         X > g k k k h h g g f f ",
"J.4.,.&.( z r - & & & & & & O O + & * $ 5 K ....o.$.j.m.H.C.l.8.J D U F N u 8 3 $ X X X X o                 o + : r y f f f y f ",
"} j : & & & & & & + o + & & o o o o - t @ u H K K o.%.V.Y.U.Y.U.k.h.y.O.J M 8 ; @ X . . .                           o = e r r r ",
"+ + O O + & & & & + o + + & o o o > V.|.R C %.S H _ o.d.I.Y.T.U.B.B.z.O.M 8 ; @ X . o                                     o + & ",
"o & O o O + & & & + o o O + > d p K 0XeXD.8.S.u.S p u S o.u.k.i.e.y.e.F u ; $ X . . o                                           ",
"O & & o o + & & & + o o + #.}.>XXXE.~.|.[.Z.l.m.i...9 $ 3 a N N b S D i ; $ X . X @ .                                           ",
"  + & & o O & & & + o   t 3XjXgXpX6X*XQ.l.7.e.e.+.h.b.o.q % @ @ X @ ; $ X X @ @ % @                                             ",
"o   + = & o O & + + o o l 1XpXgXgXdXeXqX,XW.8.V n V r.S.m.@.F b b w 7 3 3 8 8 8 3 @ o                                           ",
"+ o   & = & o O O O s f.(.OX'.*XwXfXfXdXdX6XC.G w 7 0 I z.m.i.e.@.Y C m D U I C a - X                                           ",
"& +     & & & o   + I.gXiXqX4X*XOX4XuXdXgX6XC.7.F 0 < < b O.8.8.+.E +.e.i.h.y.U 0 @ +                                           ",
"o + +     & & - A _ ].gXgXfXdXeX4X%X.X6XeX:XB.y.O.D 6 < , 2 N 8.t.h.D.(.(.D.y.B @ X +                                           ",
"  o + o   o : n.eXwX=XOX8XfXgXgXfX*XF.E.).).S.h.@.F b 4 1 < < F m.).>X,X XD.0.w @ @ +                                           ",
"o   o O     s 0XfXpXwX4X*XeXfXgXeX`.H.S.A.A.B.z.r.U N 0 4 3 1 0 A.6X7X4X@XD.8.B 1 + & o                                       o ",
"&     o & - 6 I.dXgXfXpXwXwXdXdX1X~.~.[.T.A.B.z.y.8.U N 0 4 3 < o.>X6X<X XD.0.8 o & : o o                                   o   ",
": o   H R.}.W.x.x.0XgXfXfXdXwXeX1XXX[.).[.!.A.k.i.e.O.J m 8 4 1 6 z.OX.X`.g.5 o o - y o o                               o o o   ",
": & X Y.hXhXgX7XQ.E.wXfXgXeX*X@X:X{.!.[.~.W.U.A.h.y.e.I m w 6 3 1 m C.Q.r.>   o o X : o                                 o o     ",
"& &   o.1XdXsXsXdXwXtXpXdX6X|.|.:X:XW.).[.!.!.!.A.h.e.O.N q 6 6 3 1 O.@.@   o o   o + o                                 o o     ",
"o &     K Y.qXtXdXdXdXdXdX1X[.~.XX>X!.U.[.[.!.!.W.A.y.8.P b 0 6 4 4 4 @   o         X                                 o o o     ",
"o -       > o.R.eXqXeXqX,X|.!.~.XX>X:XU.).{.{.!.U.A.z.y.+.B w 0 8 6 3 @             o                                   o     o ",
"o -       +   5 f.XX,XXX~.~.[.[.XX:X:XU.!.[.{.(.W.S.B.z.h.@.Z w 8 8 4 %             o                                   o     o ",
"+ -   + y - o o - K A.!.W.(.[.[.[.{.}.(.D.!.).!.!.!.U.z.B.h.+.m a u w 4 @           o                                         + ",
"& = X ^ 1.) & o = & 9 $.B.U.W.!.!.W.(.T.U.U.T.W.U.!.A.k.g.g.r.U P U I w 1 @         o                                         o ",
"= - X c ) z + + - &   o A V.!.!.W.U.(.A.B.U.T.W.!.(.U.B.k.h.h.i.y.k.h.O.6 1 % o     o                                         o ",
"- -   + - & & & - = o     t %.U.U.A.S.S.A.U.(.[.[.[.].U.A.Z.Z.B.S.W.U.h.B 3 4 1 o   .                                           ",
": -   & e : = & : - o   o & - A r.k.k.k.B.W.).[.XXXX}.(.T.U.W.D.W.).!.A.r.m 0 0 %   X                                           "
};
