/* XPM */
static char *b8caa8d7a6e5488dbc56e8ccb12bf586mTaza3F2EpVHyDMx[] = {
/* columns rows colors chars-per-pixel */
"64 64 249 2 ",
"   c #060305",
".  c #0A0506",
"X  c #0A0607",
"o  c #090509",
"O  c #0D090A",
"+  c #150C08",
"@  c #120D0D",
"#  c #14100F",
"$  c #1C110C",
"%  c #130F10",
"&  c #141111",
"*  c #1B1513",
"=  c #1D1816",
"-  c #1D1A1A",
";  c #25170D",
":  c #321D0F",
">  c #241A13",
",  c #241A14",
"<  c #2A1D13",
"1  c #221D1C",
"2  c #321E11",
"3  c #2B2118",
"4  c #2D231D",
"5  c #332214",
"6  c #3A2617",
"7  c #34251A",
"8  c #3C2B1C",
"9  c #272524",
"0  c #2A2624",
"q  c #2E2B2A",
"w  c #352B25",
"e  c #3B2E23",
"r  c #332E2C",
"t  c #3B322A",
"y  c #383433",
"u  c #3E3B3B",
"i  c #412C1D",
"p  c #49331F",
"a  c #5B3B1E",
"s  c #443323",
"d  c #493624",
"f  c #483729",
"g  c #4F382C",
"h  c #4C3C2D",
"j  c #563B27",
"k  c #523D2B",
"l  c #473B33",
"z  c #413D3D",
"x  c #58422E",
"c  c #49413C",
"v  c #534333",
"b  c #5B4434",
"n  c #58483A",
"m  c #674A36",
"M  c #694A30",
"N  c #634C3A",
"B  c #68523D",
"V  c #75533B",
"C  c #4A4442",
"Z  c #564C45",
"A  c #5D5348",
"S  c #584F50",
"D  c #5B5453",
"F  c #645442",
"G  c #6A5543",
"H  c #6F5349",
"J  c #66584A",
"K  c #6C5D4C",
"L  c #745542",
"P  c #735B45",
"I  c #7C5B46",
"U  c #755C48",
"Y  c #7C5D4A",
"T  c #645C59",
"R  c #74614E",
"E  c #7D624B",
"W  c #6B6258",
"Q  c #726454",
"!  c #7A6855",
"~  c #7C6C5B",
"^  c #7E705D",
"/  c #6C6766",
"(  c #736C6A",
")  c #7C7367",
"_  c #716E70",
"`  c #787575",
"'  c #865D39",
"]  c #8C613C",
"[  c #97673B",
"{  c #A06F3F",
"}  c #815B45",
"|  c #825E49",
" . c #855252",
".. c #83624C",
"X. c #89654D",
"o. c #9C6E42",
"O. c #9D774A",
"+. c #876855",
"@. c #846B54",
"#. c #8C6A54",
"$. c #926B55",
"%. c #926E59",
"&. c #8D7357",
"*. c #85725C",
"=. c #8C735C",
"-. c #94735B",
";. c #9B745D",
":. c #96795B",
">. c #A67445",
",. c #AA7C4E",
"<. c #887765",
"1. c #8E736A",
"2. c #8B7C6B",
"3. c #947C64",
"4. c #9C7B63",
"5. c #997965",
"6. c #857C78",
"7. c #A27C64",
"8. c #A47D68",
"9. c #A77271",
"0. c #9D815C",
"q. c #B4814E",
"w. c #BB8853",
"e. c #998368",
"r. c #9B846B",
"t. c #8C8277",
"y. c #938573",
"u. c #938674",
"i. c #998A78",
"p. c #A4836B",
"a. c #A58669",
"s. c #AB846C",
"d. c #AB8A6C",
"f. c #B18C6C",
"g. c #AE906D",
"h. c #A28572",
"j. c #AC8572",
"k. c #A48B74",
"l. c #AD8A73",
"z. c #AD847B",
"x. c #A68C7B",
"c. c #AB8D7B",
"v. c #B38D74",
"b. c #B38F79",
"n. c #AC9274",
"m. c #A7947B",
"M. c #AB937D",
"N. c #B49275",
"B. c #B4937C",
"V. c #BA937B",
"C. c #BB9678",
"Z. c #B49A7C",
"A. c #C0997C",
"S. c #7E7E81",
"D. c #827E81",
"F. c #898687",
"G. c #968C87",
"H. c #938E8D",
"J. c #989597",
"K. c #A39484",
"L. c #AC9482",
"P. c #AD9B83",
"I. c #A6988A",
"U. c #B39682",
"Y. c #BA9682",
"T. c #B49B84",
"R. c #BC9B84",
"E. c #B59C8A",
"W. c #BB9D8A",
"Q. c #A79B95",
"!. c #AEA18E",
"~. c #BAA185",
"^. c #B7A48B",
"/. c #BBA48D",
"(. c #ABA19A",
"). c #BBA391",
"_. c #B9A896",
"`. c #BEB09C",
"'. c #9C9CA3",
"]. c #A0A0A6",
"[. c #AAA7A8",
"{. c #B5ABA4",
"}. c #B5ABA6",
"|. c #BBB3AA",
" X c #ACADB2",
".X c #AEB1B8",
"XX c #B7B5B7",
"oX c #BBBABC",
"OX c #C29D83",
"+X c #C29D89",
"@X c #C6A58A",
"#X c #C4A38D",
"$X c #C2A592",
"%X c #C4AB94",
"&X c #CBAC95",
"*X c #C8AC9A",
"=X c #D1AD97",
"-X c #C4B29B",
";X c #CAB499",
":X c #CCB29C",
">X c #D3B49E",
",X c #C8B5A4",
"<X c #CCBAA4",
"1X c #CDB9AD",
"2X c #CBBDAC",
"3X c #D4B7A2",
"4X c #D4BAA4",
"5X c #D3BDAB",
"6X c #C5BCB8",
"7X c #CEC0AD",
"8X c #D5C1AA",
"9X c #CBC2B7",
"0X c #D3C4B4",
"qX c #D7C5B6",
"wX c #DACAB3",
"eX c #D5CABC",
"rX c #DBCDBB",
"tX c #DED1BD",
"yX c #E0CAAD",
"uX c #B6B9C1",
"iX c #BDBEC4",
"pX c #C3BFC0",
"aX c #BFC0C3",
"sX c #C3C2C4",
"dX c #C9C7C7",
"fX c #C4C5CB",
"gX c #CBCACC",
"hX c #D5CDC6",
"jX c #DCD2C4",
"kX c #DCD3CC",
"lX c #DAD4CC",
"zX c #CCCDD2",
"xX c #D0D0D4",
"cX c #D3D3D6",
"vX c #DCD7D3",
"bX c #D5D5D9",
"nX c #DADADD",
"mX c #E0CFC2",
"MX c #E2D7C9",
"NX c #E2DCD5",
"BX c #E8E1DA",
"VX c #DEDEE1",
"CX c #E0DFE3",
"ZX c #DFE0E3",
"AX c #E2E2E4",
"SX c #E7E6E8",
"DX c #EBEBED",
"FX c #EEEEF1",
"GX c #F2F2F5",
/* pixels */
"rX5X,X/.x.3.U 7   . . . O * 7 p p 6 $ O . . . O .       O @     . o . 0 G.7X`.m.*.@.! n f f J 2.! F v 4 # O o o o o o o O 9 q - ",
"mX5X:X).x.3.U s . . O $ < 7 8 3 $ O           @ .       O @ . . . . y (.eX2XP.m.L.3.P b h e s ~ i.) K F f * O o o O o o O 9 q - ",
"mX5X,X/.x.3.Y v * > , > * $ # # # O .         $ 2 ; . . O @ . . O l {.jX2X^._.`.i.3.3.E b d e v y.i.<.Q J l # O   o o o O 9 q = ",
"mXqX<X).M.3.E N 4 * @ . . . O - q 1 O .       $ 2 $ . . O @ O & t {.MX0X-X2X,XP.P.T.r.*.! P v f K y.<.<.Q K t O o o o o o & & O ",
"rX5X3X*XE.r.@.B , o .         @ 1 1 * @ O o   O o   . . O @ @ 3 G.NXeX2X0X7X^.`.-XP.m.L.m.y.K h v 2.i.<.<.Q J w O o o o o o o o ",
"wX5X3X*X/.x.3.P 4 O o o o o     O & * = * @ . O . . . . O * * T lXjX0XjXeX).,X7X_._.|.`.K.y.Q n k K K.i.<.^ K n = O o o o o O O ",
"*X>X&X#XW.c.r.@.s O o o o o o     . @ * * @ o @ + . . . * 4 l |.MXeXkXlX-X`.eX2X`.2X!.~ G N N b b Q K.I.i.<.! J t * & - 9 0 q y ",
"*.OXC.V.U.M.h.3.N # o o o o o o o     o o . . ; 6 . . O 4 4 t.MXrXMXvX7X_.eXeX,X7X!.G b L Y Y P G F ^ i.i.y.) K Z y y y u u u u ",
"4 p.N.v.Z.U.c.5.! 4 o o o o o o o o o o . .   + $ . . @ e J eXrXMXNXjX_.2XjX7X7X2X@.b Y 5.8.4.-.#.U N J 2.i.2.! A c u u u u u u ",
"O R @XA.R.R.L.h.3.n O o o o o o o o o o o O @ & * * - 1 v _.mXjXBXNX,X-XjXeX2XhXP.G Y h.B.v.j.8.4.%.Y N n y.i.~ J C z u u u u u ",
"O n &X@X#XW.U.x.3.E 1 o o o o o o o o o - 0 q q q q q r <.jXtXBXNX0X).eXkX2XeX9X3.U 5.E.W.V.v.j.8.5.$.Y b Q I.2.Q Z c z z z z z ",
"@ w %X=X&X/.E.L.r.=.h o o o o o o o o o 1 r r r r r r Z 2XjXNXBXjX-X2XvXqX,XhX!.Y %.U.$X$XR.b.j.8.7.-.X.m n I.i.~ A C z z z z z ",
"@ * L.3X&X$XE.L.h.3.P * o o o o o o o o 1 r r t e r t K.MXMXBXNX<X-XkXlX-X9X9X3.| j.#X%X#XR.B.l.s.7.;.#.V b Q.K.) K C C z u z z ",
"@ @ 2.4X&X$XW.L.x.3.@.f o o o o o o o o 1 r t e.0.e J eXtXNXBXwX;XhXvX2X,XhX).Y 5.W.*X*X+XY.B.l.p.7.;.#.L G _.K.<.W Z z u u z z ",
"@ @ J 4X:X%X/.U.x.r.=.G * o o o o o o o 1 r f 8XyXM E.mXjXBXtX<XeXNXeX,X0X2X5.Y 3.x.$X*X+XB.v.j.p.4.-.X.V U `.K.<.Q A c u u z u ",
"@ @ l 3X>X*X).E.M.h.3.@.f o o o o o o o 1 r t @.O.&.qXtXMXMX8X5XkXhX2X7X0XL.| -.x.5.! 5.B.l.s.p.8.7.-.| M ~ `.K.2.Q J c u y y y ",
"@ @ 0 ).3X*X).E.L.k.5.=.U w o o o o o o - r r t h L.wXmXMXrX<X0XhXeX0X0X)...b l Z F m m ..7.7.7.8.7.%.I x 2.`.i.2.Q J z 9 = & - ",
"@ @ * x.3X%X).E.L.x.h.3.#.*.y o o o o o - r r w n %XwXMXMX8X%X0XjXhXqX/.%.#.@.W D z l m Y 4.7.;.-.#.P m k y._.i.2.Q J c - & - 9 ",
"# # @ ! 3X*X).W.U.c.k.r.-.<.t.- O O o o - r r w ~ >XwXMXjX&X;XhXkX0XM.#.;.v.U.x.1.Q G @.b.V.;.L b h x b h i.!.y.<.Q J Z 9 9 0 0 ",
"# # @ c :X&X/.E.U.L.x.h.5.3.(.D O O O O = r r t r.>XrXMX8X~.2X0XE.%.I $.v.+X$XW.c.5.5.$X>X#X| h r y t s l i.I.2.<.Q J A r q r 0 ",
"# & @ 1 E.:X/.E.U.U.c.k.r.4.{.G.- O O O * r q e n.>XkXjX~.~.,Xk.M M } 7.V.+X#X+X+X+X*X3X3XY.L H J A f < n i.K.<.) Q A J l l y r ",
"% % # & <.:X#XE.E.U.M.x.h.k.|.[.C O O O * r 0 f Z.8XMX<Xd.~.N.:.b V X.8.V.+X#X+X+X#X=X>X=Xv.V @...G b 7 F y.i.*.~ Q Z J n l r 0 ",
"& & # @ n *X#XE.U.U.M.x.k.E.oX{.6.1 O O * r 0 f ~.rXrXC.d.Z.N.p.B ..;.s.V.OXOXOXV.b.#X=X&Xs.L #.-.X.B 7 J y.y.~ ! Q n A l 4 1 9 ",
"# & & # 4 U.$XW.U.U.M.c.l._.oXXXI.) r O * r 4 N -XwX&Xf.a.T./.T...-.j.v.V.V.V.v.s.v.+X#X=Xj.I #.-.#.m 8 J 3.2.~ R K n A t $ # 1 ",
"# & & & & <.*XW.U.U.M.c.c.|.oXXXQ.I.( O * t h k.<X<X@Xf.d.%X,X/.-.7.V.C.V.V.V.b.R.#XB.j.v.%.I #.#.L d d K 3.3.~ K K n A w O O = ",
"# & & & & t.:XW.U.U.L.M.U.6XXX6XQ.i.y.c = f R -X5X%X@XN.n.,X2X~.r.p.C.OXV.V.v.N.*X:X*Xl.@.B I ..L k i b Q 3.<.*.K G n A < O . = ",
"& & & & - (.5X#XY.B.B.B._.sXoXpXI.2.i.K.t b m.<X8X%X@XZ.n.-X-XB.e.3.v.OXA.N.a.5.9.z.z.8.#.L L V k 8 d F <.3.*.*.K G F =.&.9 0 r ",
"& & & # 0 6XeX#XR.U.B.U.1XsXsX6XG.2.y.K.Q @.~.;X8X;X%XR./.,X/.a.:.=.$.A.A.C.A.Y.D.1. .L m m m g 7 d F *.=.*.*.@.R G B d.Z.t y u ",
"% % & @ u hXkX:XR.Y.U./.dXdXgX{.G.t.i.K.^.T.T.%X<X5X<X-X2X-XZ.:.3.@.V 8.A.OXOXV.z.9.9. .k b k 8 g N K =.*.*.2.@.! F s a j q y y ",
"% % # @ y dXkXqX#XR.R.,XzXdX|.K.G.t.G.K.!.).%X#X-X;X7XrX0X).d.3.#.E L } s.OX@X#XB.5.X.H N k 8 s h b R 3.=.3.y.<.! G < @ @ & & * ",
"% % # # * F.kXkX:X+X#XhXgX|.(.I.G.i.G.Q.(._.^.~.Z.$XqXjX<XT.h.3.V E I I X.s.OX#XY.j.%.L x p p h b P *.r.r.e.i.e.*.*.w o O o o o ",
"O O O @ @ 0 [.NX5X#X,XvXdX{.Q.Q.G.G.Q.Q.{._.T.Z.n.<XjX0X%XM.3.L B E | ..X.X.5.8.7.-...N g g x b F @.e.k.m.r.e.2.^ <.A O O O o o ",
"$ + o O @ @ r [.kX<XqXvX6X{.Q.(.G.G.(.{.{.{.U.T.-XjXtX-XZ.p.Y m V ..| X.#.X.X.| V m B x b b B N R 3.k.m.m.K.3.*.n K ! = o o o o ",
"< > O o @ % @ y 6XhXvXhX,X{.Q.[.G.Q.{.{.{.{.^./.<XqX,Xn.&.&...m V ..| #.%.%.#.Y M b B m B B K B @.i.m.P.m.!.r.F t v ! t O o o o ",
"< > o o O @ @ @ ` BXNX2X{.{.Q.{.J.[.XXXX{.{.T./.%XT.p.-.I @.#.m L ....%.4.;.$.} V B U P P U ! P *.P.P.m.^.P.I.n 3 c J t @ o o o ",
"< ; o o O @ @ @ / SXlX2X-X{.[.{.Q.XXpX|.{.{.Z.Z.a.e.4.:.I #.-.B I ..#.4.7.4.$...I L E @.E ! @.E 3.).m.e.).P.y.~ l t n 4 @ . . + ",
"< $ . O @ @ @ S cXvXeXeX1X{.{.{.(.oXdX|.|.).Z.d.:.:.k.e.E &.4.L Y | %.4.7.;.$...} L Y @.@.&.@.=.m.P.n.k.E.!.2.2.Q Z A = $ o . . ",
"> ; $ > < < t |.vXhXeXhX9X|.|.{.{.sXdX|._.T.T.g.e.:.~.e...#.r.| | X.$.;.7.7.;.-.$.X.#.#.&.3.&.=.m.h./.P.K.I.2.<.2.) ( T 9   o o ",
"$ ; 8 8 5 ; 4 G.9XlXlXhXhX6X6X|.XXgX9X`.T.m.T.n.n.k.~.&.E 3.p.X.$.%.4.s.v.s.8.s.8.7.8.4.&.-.3.r.e.r.,X`.K.K.y.<.2.2.6.H./ * $ ; ",
"$ 8 k i 8 5 $ # C J.hXlXhX9X6XoXdXgX2X^.P.n.n.r./.T.k.I E k.4.$.7.s.v.b.b.v.s.s.s.p.p.7.p.&.-.m.3.r.<X,XP.y.i.<.6.F.G.J.H.l 6 a ",
"$ h x s s i 8 > O * T |.lXhXdXdXcXhX<X/.Z.a.e.-.~.Z.4.V -.l.-.8.v.N.V.V.V.b.v.j.s.s.s.p.s.p.-.m.e.3.-X-Xr.*.y.t.F.J.J.J.F.n i p ",
"$ e b d d s s s $ O . 0 F.hXhXcXvXeX;X~.g.0.&.@.n.n.:.E 4.;.s.b.V.V.V.b.b.b.v.l.s.s.j.d.b.Z.p.M.e.i.`.^.e.*.y.i.H.J.[.J.` f 5 5 ",
"+ < b h d d d k 7 $ > 2 d Q.NXNXtX4X~.n.a.:.&.&.n.a.:...4.v.V.R.R.V.V.b.v.v.l.l.l.j.l.l.Y.M.l.n.T.T.m.^.r.=.2.F.J. X XJ._ e ; ; ",
"$ $ h k g k j b M V M M V k.jXrXwX;XZ.n.a.e.:.4.B.a.:.#.s.V.OX#X&X#XOXV.N.b.b.b.b.b.b.b.R.c.l.n.Z.e.h._.r.=.2.F.J..X[.H./ 7 ; O ",
"< 6 M V V V V ' ' [ ] ] a.;XrXwX8X&X/.n.:.%.p.T.N.a.$.;.s.b.R.#X&X&X&X#XOXV.V.V.V.V.V.V.R.T.d.Z.d.e.e._.e.e.t.H.[. X[.F.T 3 $ + ",
"o.>.>.o.[ [ [ [ [ [ o.d.;XwXrXwXwX8X-X4.-.c.~.N.a.a.;.7.p.f.V.#X:X:X&X#XOXC.N.N.N.N.V.V.V.).s.l.d.n.e.P.e.m.t.H.[.[.J.6.C 3 $ O ",
"q.,.>.>.>.{ [ [ { >.,.Z.;X8XwXtX0XhX,Xl.~.#XC.N.N.N.p.7.7.p.N.#X:X&X#XOXC.v.f.d.d.f.v.b.b.%Xp.a.l.Z.Z.e.3.M.u.G.J.].J.` l 3 , > ",
"q.q.q.q.,.>.>.{ [ >.f.Z.~.8XwXjXhXAX-XR.:X&X&X#XOXV.s.7.;.;.d.#X&X@XA.N.v.f.s.p.p.p.p.a.s.).4.7.a.^._.k.@.i.i.F.H.J.J.( e 3 3 3 ",
"w.w.q.,.>.>.o.] ,.A.l.:./.8XrXvXSXAX2X$X>X3X>X&X#XV.v.8.;.%.8.W.#XC.C.C.C.N.v.d.a.p.4.4.7.).5.4.l._.`.`.i.e.y.6.F.H.J.W 7 7 e 7 ",
"q.q.,.o.] M j E @X*.h N /.8XMXDXSXvXDXkX*X3X4X:X%XR.b.p.;.#.;.V.V.OX@X#X#XR.V.N.c.h.p.4.h.I.-.k.{.|.!.P.!.i.2.<.6.F.H.Z < > < 3 ",
"o.' M j i 6 b ~.@.s e F Z.0XDXDXBXSXGXGXlX-X4X3X*X#XB.s.4.X.#.b.@X&X:X&X&X#XR.R.B.c.M.E.|.i.K.XXoX{.Q.i.i.i.) ~ ) ` D.l > . $ 3 ",
"p i 6 6 2 6 m.3.s s 8 K r.kXGXSXDXFXFXGXGXkX-X:X:X$XY.l.4.....R.>X4X4X3X:X%X#XW.).1XgXaXoX[.sXoXoX[.Q.Q.y.y.) Q ) ) _ e ; . $ ; ",
"6 5 2 : ; N n.x s 8 8 N 2.SXGXFXFXDXDXFXFXDXvX).$X$XR.c.7.} ;.3X8XqX5X4X,X*X*X1XNXVXfXoXXX[.iXXX X(.[.{.t.~ ~ W ( ( / 7 + . O . ",
"2 2 2 : 2 &.E s 8 8 s s 6.FXFXFXFXDXAXAXSXSXvX|.x.W.U.b.4.| W.qXqXqX0X5X5XqXlXcXiX X X X[.XXiX X[.XXoXH.J K Q / ( ( T 3 O . . . ",
"6 6 5 : d :.N s 8 8 s 8 F.FXDXDXDXDXSXAXVXVX|.|.Q.h.U.B.4.%.3XqXqXqXjXkXlXgXoX X XXXoXoXoXaXiX XoXoXF.W v F W _ ` _ D > o o . . ",
"6 6 5 : x &.k i 7 8 s 8 G.DXSXSXSXSXAXAXAXAXnXnXcXQ.h.j.$.8.4XqXkXAXvXsXXXXXiXgXcXcXcXzXfXfXfXoX XF.` W Z J ( ` ` _ Z $ o . . . ",
"6 ; $ O N E g 8 6 8 i 8 t.SXSXSXAXAXAXVXVXVXAXZXVXnX|.x.| p.5XvXAXgX{.XXgXbXnXnXnXbXcXzXfXfXfX[.J.F.` / D T _ F.` _ c +   . . . ",
"O     O V V d 8 8 8 8 8 W VXAXAXVXVXnXnXnXnXVXZXVXVXcX{._._.vXnXzXdXgXbXVXVXVXVXnXbXcXzXfXfX.X].J.F.` W D W ` F._ _ l O         ",
"      + P N d 8 8 8 8 8 n gXnXnXnXnXnXnXnXnXnXVXAXFXDX6X(.6XzXcXnXVXAXAXAXCXVXVXnXbXcXzXfXiX X].J.F.` D D / 6.D._ _ l * * * * * ",
"      * P x d 8 8 8 8 8 e J.bXbXbXcXcXcXcXnXVXAXDXGX9X@.m Q.9XcXVXAXAXAXCXVXVXnXbXcXzXfXfXuX[.'.H.S./ S D ( D.D._ / v h h h h h ",
"    . 5 P k d 8 8 8 8 8 7 J dXzXzXzXzXzXzXzXzXcXVXSXQ.m j i.9XsXbXnXnXVXVXnXnXnXbXcXgXfXiX.X].J.F.` T Z T _ F.F._ / h v v v v v ",
"O $ ; s V g s 8 8 8 8 7 7 v sXgXfXdXfXfXfXgXzXzXgXzX{.b j G.cXzXbXVXVXVXnXnXbXcXcXzXfXiXuX XJ.F.S._ S D / ` F.H._ W v n n b b v ",
"5 5 5 k V g s 8 8 8 8 7 8 l gXgXiXaXiXiXiXiXiXsXfXfXfXG.b Q.VXVXZXVXnXbXbXcXcXzXzXfXiXuX.X'.H.S.` T S T / 6.H.J._ D b ! ! K N n ",
"5 5 5 x B d s 8 8 8 8 7 7 l zXgXoXXXoXXXXX.X.XXXXXoXfXoXG.sXzXfXfXfXgXzXzXzXzXzXfXiXoX.X[.H.F.` / S S T _ D.H.J.` S < s R 2.*.K "
};
