/* XPM */
static char *_4e84ee5662f45aaa9d820f2981bbda0d8Cp7t0RJld4jBRL[] = {
/* columns rows colors chars-per-pixel */
"64 64 238 2 ",
"   c #09090A",
".  c #13100E",
"X  c #0C0E12",
"o  c #131114",
"O  c #1A1413",
"+  c #1E1917",
"@  c #14151A",
"#  c #17181E",
"$  c #1A1A1E",
"%  c #221916",
"&  c #241C1A",
"*  c #281D1A",
"=  c #25211F",
"-  c #2A211D",
";  c #32241D",
":  c #171920",
">  c #1B1D24",
",  c #1D1F29",
"<  c #201F23",
"1  c #1E2027",
"2  c #1E212B",
"3  c #232125",
"4  c #2C2423",
"5  c #23252D",
"6  c #2A2629",
"7  c #27282F",
"8  c #2A292D",
"9  c #362B27",
"0  c #3D312C",
"q  c #242730",
"w  c #262931",
"e  c #2B2C33",
"r  c #2C2F39",
"t  c #322E33",
"y  c #2F3037",
"u  c #2E303C",
"i  c #333135",
"p  c #3B3232",
"a  c #31333D",
"s  c #3B363A",
"d  c #3A393D",
"f  c #42322D",
"g  c #4B342A",
"h  c #463B38",
"j  c #523D38",
"k  c #4B423C",
"l  c #58443C",
"z  c #694939",
"x  c #323540",
"c  c #353A46",
"v  c #3D3E44",
"b  c #393F50",
"n  c #453D41",
"m  c #3E4452",
"M  c #474447",
"N  c #564A46",
"B  c #5B4D46",
"V  c #5E524E",
"C  c #514D53",
"Z  c #5A5556",
"A  c #674A44",
"S  c #68544B",
"D  c #765749",
"F  c #665B58",
"G  c #785D51",
"H  c #6D615B",
"J  c #766559",
"K  c #74655D",
"L  c #5C5D61",
"P  c #6A6563",
"I  c #6A6767",
"U  c #746A63",
"Y  c #776D67",
"T  c #77706E",
"R  c #777474",
"E  c #7D7573",
"W  c #835B4B",
"Q  c #865A53",
"!  c #8A624D",
"~  c #836353",
"^  c #8B6553",
"/  c #88695A",
"(  c #956B58",
")  c #936C5C",
"_  c #99725D",
"`  c #A1735E",
"'  c #83756C",
"]  c #897668",
"[  c #9C7563",
"{  c #917169",
"}  c #987A69",
"|  c #847874",
" . c #8A7C73",
".. c #847D7A",
"X. c #A47666",
"o. c #A37965",
"O. c #AA736D",
"+. c #A47C6A",
"@. c #B47975",
"#. c #93806F",
"$. c #8A8178",
"%. c #8B817C",
"&. c #988677",
"*. c #93857C",
"=. c #A5816D",
"-. c #AB826D",
";. c #B2866D",
":. c #A48473",
">. c #AC8572",
",. c #A78978",
"<. c #AC8C7A",
"1. c #B48976",
"2. c #B28D7A",
"3. c #A8917D",
"4. c #B4917D",
"5. c #BA937B",
"6. c #BA9478",
"7. c #C0977D",
"8. c #857E83",
"9. c #AF7E81",
"0. c #8B8582",
"q. c #8A8888",
"w. c #918582",
"e. c #948A83",
"r. c #9B8D84",
"t. c #988C86",
"y. c #9E9186",
"u. c #9C928B",
"i. c #969394",
"p. c #A58C85",
"a. c #BA8B85",
"s. c #A69689",
"d. c #B39483",
"f. c #BB9683",
"g. c #B59985",
"h. c #BC9A85",
"j. c #BA948A",
"k. c #B69B8B",
"l. c #BB9D8C",
"z. c #A49A93",
"x. c #A89C96",
"c. c #B79E95",
"v. c #AFA18E",
"b. c #B4A08D",
"n. c #BDA18D",
"m. c #ADA195",
"M. c #ACA49C",
"N. c #BDA292",
"B. c #B2A59C",
"V. c #B8A899",
"C. c #9A9EA8",
"Z. c #BA9FA2",
"A. c #ADA7A3",
"S. c #B5ACA3",
"D. c #B7AAA5",
"F. c #B9AEA3",
"G. c #BBB1A5",
"H. c #B7B2AE",
"J. c #BCB3AB",
"K. c #A6AAB3",
"L. c #BAB7B5",
"P. c #C19385",
"I. c #C29D84",
"U. c #C29F8A",
"Y. c #C49791",
"T. c #C5A284",
"R. c #CAA587",
"E. c #C4A28C",
"W. c #C9A68C",
"Q. c #CCAA8D",
"!. c #C4A593",
"~. c #C9A692",
"^. c #C5A995",
"/. c #CBAB94",
"(. c #C4A699",
"). c #CAA59A",
"_. c #C4AA9B",
"`. c #CCAD9B",
"'. c #D0AE96",
"]. c #CDB19D",
"[. c #D1B196",
"{. c #D2B39D",
"}. c #C3ADA3",
"|. c #CBAFA2",
" X c #CDB3A3",
".X c #C5B6A9",
"XX c #CDB4AA",
"oX c #C3BAAE",
"OX c #D3B5A3",
"+X c #D8B7A1",
"@X c #D6B9A5",
"#X c #D9BAA5",
"$X c #D2B6AB",
"%X c #D4BAAC",
"&X c #D9BDAC",
"*X c #C3BCB5",
"=X c #CABDB4",
"-X c #C9BCB9",
";X c #D5BCB2",
":X c #D9BEB3",
">X c #DABFB9",
",X c #DBC0AE",
"<X c #CCC1B5",
"1X c #C8C2B9",
"2X c #CBC4BC",
"3X c #D6C1B5",
"4X c #DBC2B5",
"5X c #D1C5BB",
"6X c #DDC5BB",
"7X c #D3C9BE",
"8X c #DEC9BD",
"9X c #E0C7BD",
"0X c #E0CABE",
"qX c #B5B9C2",
"wX c #C2BFC1",
"eX c #BDC3CD",
"rX c #BFC5D0",
"tX c #CCC6C3",
"yX c #C9C8C9",
"uX c #D4CCC4",
"iX c #DDCCC2",
"pX c #DACBC5",
"aX c #D4CEC9",
"sX c #D7D0C8",
"dX c #DAD3CC",
"fX c #C0C7D0",
"gX c #C4CBD3",
"hX c #C9CED6",
"jX c #CACFD8",
"kX c #D0CDD0",
"lX c #CDD1D7",
"zX c #CCD2DB",
"xX c #DDD6D1",
"cX c #E1CDC2",
"vX c #E2D1C6",
"bX c #E4D4CC",
"nX c #E2DAD4",
"mX c #E0E4E9",
/* pixels */
"x x x x x x x a a a a x x x a r r w w w q 2 : # : 2 u , , , , , > > > u c > c b q , o X X 3 u u a a y y y e e e e e e e e e e e ",
"x a x x x a a a a a a a x x a r e w w w q 2 : # : 2 u , , , , , , > > x x > c m 5 # X X X 5 a a a a a y y y e e e e e e e e e e ",
"x a x x a a a a a a a a a x u r w w q w q 2 # # : 5 u > , 2 , > , > : c u > c m 5 $ O $ O 8 a a a a i y y e e e e e e e e e e e ",
"a a x a a a a a a a a a a a u r w w w w w 2 : # : w v s h s i e 5 , > v M s h 9 - - 4 0 f h h d a u y e e e e e e e e e e e e e ",
"a a a a a a a a a a a a a a u r w w w w w 5 5 i s p h h h h h h p 8 6 M N f ; * * & ; 0 k V V B N d e t e e e e e e e e e e e w ",
"a a a x a a a a a a a a a a u r w w w w a C F B f 0 f f 0 p p p 0 0 4 - - % - l S h h k N V B B F F d e e e e e e e e e e e e w ",
"a a a a x a a a u u a a a a u r w 5 5 M U J A D ) o.+.[ / G S l g f 0 4 % O % k  .s.%.F V H S N B F P d e e e e e e e e e w w e ",
"a a a a x a a a u u u u a u r w 5 w C ] D G >.I.R.W.Q.Q.R.I.6.+.^ D l 9 * % % & 0 #.J.z.F V K S B F T F a e e e e e w e e w w w ",
"a a a a a a a u a u u u u u e w e P ] D _ h./.{.{.{.{.{.{.'.R.7.1.X.G j 0 4 * % % 9 K s.$.h U K S K H Y M e e e e e w w w w w 8 ",
"a u a a a a u u u u u u r e e e P #.S { l.`.{.{.{.+X+X+X+X{.'.R.7.;.) G l f 4 % O O - k ' k F ' H ' K K F i e e e e w w e w w 8 ",
"u a a a u u u u u r r r e u e C &./ ' Y | k.+X+X+X+X#X#X#X#X+X'.W.5.>.) S j 0 - % & - - l h N $.Y  .Y H ' M w e e w w w e w w w ",
"u a a u u u u u u u u u u u v $.] } j.k.*.p.@X#X#X#X%XOX#X#X#X+X/.E.5.+.~ l f 9 - & - - 4 4 k *.|  .' F  .H e e w w w w w w w w ",
"a a a u u u u u u u u u a a Z U D Q <.(.N.!.@X4X6X6X.Xt.t.s._.OX{.~.5.+.^ l f 0 4 * * = 9 & p w.%.*.*.U &.| i w w w w w w 8 8 7 ",
"a a a a a u u u u u u u a M ' N p C Z | c.N.+X6X4X;X.XB.x.z.e.e.k./.h.+.~ A j g f 9 4 4 4 * 6 0.t.s.y. .t.0.v 8 w w w 8 8 5 5 5 ",
"a u a a u u u u u u u u u Z 3.p.| 8.Z s | (.@XOX`.XXXXXXXX$XXXD.p.p.h.2.o.) ~ S l f 4 4 4 & 8 0.u.x.z.*.t.e.C 7 w 8 w w 7 5 5 5 ",
"u u a u u u u u u u u u x | N.}. X}.B.x.N.OX`.N.}.x.w. .:.j.).).(.d.d.4.>.+.[ ( D f 4 4 - + 4 %.z.m.x.t.s.s.Z r 7 8 8 8 7 5 5 5 ",
"u u u u u u u u r r r r M s. X$X$XXX|.`.{.{._._.}.w.8.n 4 j Q X.1.a.d.4.>.-.+.[ S 0 4 * & o = ..x.A.M.s.z.z.I y 7 8 8 8 5 5 5 5 ",
"u u u u u u u u r r r u F !.OX%X$X`.#X#X/.E.`. X=XXXA.E n i t A ) +.2.2.2.>.-.) N 9 * + O . 6 ..M.S.B.m.B.m.R a w 7 5 5 5 5 5 5 ",
"u u u u u u u r r r r a ' ).{.$X`.N.|.!.).h.`.;X;X;X;X;X}.M.x.c.c.N.!.h.2.>.+.G f 4 % O O o t 0.M.F.B.S.F.B...i e 5 5 5 5 5 5 5 ",
"r u u u r u r e r r r v ,.).].`.^.(.(.<.l.U. X4X4X4X4X4X:X:X;X%X X`.(.g.2.+.) S h 9 & + O + h 0.M.G.F.L.G.S.e.s e 5 5 5 5 5 3 3 ",
"r r u r r r e e r e r C d.~.U.a.P.~.|. X/.`.4X6X6X9X6X4X:X%X%XOX`.(.f.2.o.( / G D l 0 % . 4 C 0.M.L.*X*XJ.F.z.v e 5 5 5 5 3 1 1 ",
"r r r r e e e r r r r F l.d.` ` @.a.Y.).OX%X4X6X9X6X6X:X$X]./.!.h.2.>.o.( W / o.>.{ A % + M F e.S.2X2X2X*XF.M.C e 5 5 5 5 3 , , ",
"w w e r r r r r r r r Y l.O.Q A p.Z.j.1.).$X:X6X4X%XOXOX/.E.h.4.>.+.[ ( W ^ _ >.2.,.<.A M F I t.F.2X2X2X2XoXG.Z e 7 5 3 3 1 , , ",
"w w w w w w e r r r r ' l.@.@.@.@.9.@.( @.|.;X%X@XOX`.~.U.f.1.-.X._ ( ^ ( o.+.>.(.p.f.] T I U u.F.*X2XtXtXoXoXT e 5 3 3 3 1 , , ",
"q q w w w w e r r r r Y l.h.5.1.a.P.@.O.O.).%XOX{.`.~.E.I.5.>.o.X._ ( _ >.2.d.(.&Xj.:.K E U T u.F.tXuXuXuX=X=X0.y 5 3 3 3 2 , , ",
"5 5 5 q w w w w e e e H E.`.{.`.`.).~.).`.OXOX{.`./.~.E.I.5.2.>.+.[ o.4.E.!./.OX`.+.S E E T R z.J.aXaXuXuX2X<Xi.s 3 3 3 2 2 , , ",
"5 5 5 5 q w w w w w w V !.@X&X&X#X&X@XOX{.`./././.~.~.E.U.h.2.>.o._ d.dXsX XI.4.G l Y 0.E R E x.2XdXaXaXaX2X2XA.d 2 3 3 2 2 , , ",
"5 2 2 5 5 q q w w w w d &.`.%X:X&X@X{.`./.~.~.~.!.E.E.U.h.4.>.[ ! D *.mXmX*.A l N Y ..e.| | ..F.uXxXdXuXaXuX2XL.M 1 2 3 2 , > > ",
"2 2 2 2 5 5 q q w w w w s F } d.U.U.U.U.E.U.U.U.U.I.h.f.2.-.( W W z l P H B U E E | %.t.| $.e.L.uXxXdXaXdXuX2X1XZ 1 2 1 , , > > ",
"2 2 2 2 2 5 5 5 q q w w 7 3 h j [ +.+.-.-.-.-.>.>.>.-.o.( ! ^ ( W z ; 9 B U %.%.....w.u. .e.z.1XuXxXdXaXsXuX5XuXI 3 2 , , > > > ",
"2 2 2 2 2 5 5 5 5 5 w w w 5 6 h :.,.4.4.1.-.o.` _ _ _ ( _ +.+./ A f 9 N Y | %.%...0.t.z.*.x.M.2XuXxXdXaXsXuX5XuX..5 , , > : : : ",
"2 2 2 2 2 2 2 5 5 5 w r w 5 3 N d.4.l.~.W.E.h.5.5.5.5.5.5.5.o.D j ; h Y  . .*.0.%.e.z.z.z.F.F.tXaXxXdXsXdXuX5XuXx.w , > : : : : ",
"2 2 2 , 2 2 2 2 2 5 w w 5 5 5 H n.d.!.!.~.~.E.E.W.Q.Q.W.I.1.( D g f P e.*.*.t.e.e.y.m.m.B.F.G.tXsXnXxXdXdXuX7XuXL.d > > : : $ $ ",
", 2 , , 5 r w 5 7 y r r w w L m._.l.!./.`./././.{.{.{.~.I.5.o.! z B ..u.t.y.y.e.t.s.S.M.F.G.oXuXsXnXxXdXdXuX7XuXtXC : : $ $ # # ",
", 2 2 w v M e y M v a a a I H..XXX^.E.W./././.{.{.{.{.~.E.I.1.o.( G $.u.t.t.t.t.y.x.F.B.F.G.=XuXsXxXdXsXdXsXuXsXaXI , : : # # # ",
"2 5 v P P U C F M a e v R *X=XV.#X{.~.W./.{.{.{.{.{.]./.Q.T.6.6.-._ } t.t.y.e.t.y.M.S.M.F.F.2XuXaXxXdXsXdXsXuXsXaXR 5 : : # # # ",
", 5 Z  . .#.#.] Y Z Z q.1X<XF.V.%X&X`.Q.{.OX+X+X{.{.{.'.Q.R.R.I.7.6.-.} &.t.*.t.s.M.x.x.S.F.tXuXaXxXsXdXdXsXuXuXaXq.e , : # # # ",
"> e U '  .y.s.k.m.B.J.uX=XV.m.k.3X4X+XQ./.{.#X+X{.{.{.[.Q.Q.Q.Q.T.T.6.1.=.#.*.*.t.z.y.t.z.S.uXtXuXxXsXsXdXsXuXuXaXi.s 5 : # # # ",
", s ] #.#.s.m.S.G.1XuX<XV.s.&.p.3X4X&X/./.{.+X+X+X{.{.[./.Q.Q.Q.Q.R.T.I.5.2.:.&.e.s.&.*.t.m.tX1X2XdXuXsXdXuXuXuXaXq.t 8 , # # # ",
"w M ' &.s.m.F.=X7XuX<XV.k.<.<.l.3X4X,X`.#X#X#X#X{.'./.R.T.T.I.T.T.T.R.T.T.n.6.>.&.&.]  .*.s.1XL.1XdXuXsXdXuXpXuXuXR i 3 3 : # # ",
"M U ' | s..X2X7XuX5XV.d.d.d.l.!.4X,XOXOX%X+X{./.~.W.E.I.I.h.I.I.7.5.6.6.5.6.4.2.>.:.}  .*.t.S.z.J.uXuXsXsXpXsXsXtXI 8 > 3 > # # ",
"U &.&.s.G.oX<X2X5XV.,.d.l.!.!./.4X{.].OX{.`./.`.OX%X%X%X&X;X:X&X%X{.W.T.I.l.g.h.h.g.f.4.,.3.m.e.M.oXoX1X2X7XsXsXL.C > $ 3 > @ @ ",
"3.3.s.v.V.=X<X<X}.<.d.k.N.^.E.`.OX`.`.`.{.{.OX%X4X6X8X8X8X8X4X4X&X+X/./././.^.!.W.~.W.E.E.h.g.&.m.G.F.oX.XoX<XtXi.i $ > 3 $ @ @ ",
",.&.3.v..XoX=X}.d.g.k.l.N.E.E./.`.`.`.{.OX@X%X:X4X4X4X4X:X&X&X&X#X{.`.]./.~.E.E.W./.`.`.].`./.!.l.m.V..XG..XoX*XI 3 < 5 : # @ @ ",
"s.d.b.V.V..X_.g.j.k.N.N.n.E.!./.`.]. XOX#X&X&X%X%X%X%X#X#X#X#XOX{.].].].~.E.E./.{.#X#X&X&X&X%XOX`.n.b.F.F..XoXM.C 8 5 > # @ @ @ ",
"&.,.3.k.V.N.g.l.k.l.N.N.!.^.`.`. X XOX$X%X%X;X:X%X%X#X+X+X+X{.{.{.OX]./.W.W.`.OX&X4X6X6X4X4X&X&X$X].n.g.V.G.oX%.h 8 $ # : # @ @ ",
"k ] 3.V.g.g.l.l.N._.(.(.`. X X X XOX%X&X:X:X:X4X:X%X@X{.{.{.{.{.#X#X{.W.!.].%X:X8XcX0XcX8X4X4X4X&X%X].E.d.k.S.R i 3 # # > # @ @ ",
"5 H 3.d.g.n.!.(.|.}._. XXX$X;X$X$X;X:X4X4X4X4X4X&X+X{.{.{.{.{.+X#X&XOXW./.$X3X6XvXbXvXcX8X8X6X6X4X4X%X X^.l.,.T i e > > $ @ @ @ ",
"8 J d.n.(.|. XXXXX|._. X$X;X;X$X;X4X4X4X4X:X&X%X@X{.+X#X#X+X+X#X4X:XOX/.`.$X4X6X8XcXvXvXcXcX0X9X8X3X4X&X$X].E.<.S s 3 : @ @ @ @ ",
" .k.(.`.XX%X%X%X%X X XXX$X$X$X$X&X;X%X%X%X%XOXOX@X#X#X&X#X#X#X&X,X&X%X X].XX%X;X4X6X8X8XcXcXcXcX8X8X4X4X;X%X].!.4.J 6 # @ @ @ @ ",
"(.}.XX%X&X&X:X;X&X$X%XXXXX$X$X%X%X$X X].]. XOX@X&X:X4X4X4X,X4X4X&X#X$X X X X].XX$X;X3X6X8XiXiXcXcX0X8X6X4X:X%X X^.f.~ 6 @ @ @ @ ",
"XX%X;X;X4X4X4X4X4X;X;XXXXXXX$XOXXX X X XOXOX%X&X:X4X4X4X4X4X4X4X&X#X#XOX`.].`.]. X$X;X3X3X8X8XcXcXcX0X8X6X4X:X%X X/.f./ 4 @ @ @ ",
"%X3X8X8X8X9X9X0X6X3X$XXXXX X].`. X X XOX%X%X&X4X4X4X4X4X6X6X4X4X4X&X#X+X/.!.!.^.].XXXX$X;X3X6X8XiXcXcX9X8X6X4X:X%XOX!.f./ 3 @ @ ",
"-X5X8XiXcXcXcXcX8X3X%XXX].^.(.`. X X$X%X:X:X4X6X6X6X9X9X9X6X6X6X4X:X#X#X{.E.h.h.E.^.`.XX$X;X3X6X8XcXcXcXcX8X6X:X%X$X X).g./ 6 o ",
"hXhXkXaXpXiXcXvXcX3XXX].^.n.(. XXX%X;X4X6X6X8XcX9X9XcXcXcX9X8X6X4X4X&X#XOX/.4.>.-.2.l.^. X$X;X3X6X8XiXcXcXiX6X6X:X;X$X X(.l.{ p ",
"hXjXlXlXhXkXyXuX7X=X}.N.l.^.XX$X;X4X6X8XcXcXcXcXcXcXcXcXcXcX6X6X4X:X%X{.~.E.<.~ G ~ [ d.(. XXX;X3X4X8XiXiXiX8X6X:X;X%X$X X/.l.:.",
"hXhXgXgXgXgXgXgXgXgXyXwX-XtXyXtXuXpXiXvXbXbXbXbXbXbXbXcXcXiX8X6X4X&XOX^.h.:.~ G { } } ,.g.^. XXX;X;X6X8XiXiX6X6X4X:X;X$XOX`.!.U.",
"gXgXgXgXgXhXhXgXhXjXlXlXzXzXzXzXzXlXkXaXdXbXbXbXbXbXbXbXbXvXiX8X;X$X_.h.=.~ ~ } :.d._.^.d.j.(. XXX;X;X3X6X6X6XiX6X>X:X%XOX`.`.(.",
"rXgXgXgXgXgXgXgXhXgXgXhXlXzXzXzXzXzXzXhXlXkXxXxXnXnXbXbXbXdXiX6X;X Xn.,./ ~ } :.<.N.^.N.k.<.k._.}. X$X;X;X>X6X6X6X6X:X%X%XOX).l.",
"rXgXfXeXeXeXrXgXgXhXjXlXlXlXlXlXzXzXzXzXzXzXzXzXkXkXdXdXpXpXpX3XXX_.d.} ~ ) :.<.n.n.g.4.:./ G p.(._.|.XX;X;X>X4X6X6X:X;X;X$X`.(.",
"eXeXeXeXgXgXhXhXhXjXjXjXjXlXlXzXzXzXzXzXzXzXjXhXhXhXhXyXtXtX=XXX_.l.:./ / } ,.g.n.g.<.} G 9 . 0 &.(._.|.XX$X;X;X>X>X:X:X;X;X%XXX",
"eXrXgXgXgXhXhXhXhXhXhXjXlXzXzXzXzXzXzXjXhXhXhXhXhXhXhXhXgXgXyXwXH.x.} / ) =.4.g.g.<.} G 4       4 ] N._.|.XX$X$X;X;X;X:X;X;X-XtX",
"eXeXgXgXgXgXgXgXgXhXhXlXjXjXjXjXjXjXhXzXzXlXlXlXjXhXhXhXgXgXfXeXeXqXH.x.z.z.M.A.M.u.w.R 8         + K c._.|. XXX$X$X;X;X-XyXhXzX",
"eXrXgXgXrXrXgXhXhXhXhXhXhXhXhXlXzXzXzXzXlXlXlXlXjXhXgXgXgXfXeXqXqXqXqXL.L.K.K.K.K.C.C.q.e   X o o   o F c._.|.XXXXXX=XwXhXzXzXzX"
};
